<?xml version="1.0" encoding="utf-8"?>
<!-- Generator: Adobe Illustrator 24.0.0, SVG Export Plug-In . SVG Version: 6.00 Build 0)  -->
<svg version="1.1" id="Layer_1" xmlns="http://www.w3.org/2000/svg" xmlns:xlink="http://www.w3.org/1999/xlink" x="0px" y="0px"
	 viewBox="0 0 200 30.29" style="enable-background:new 0 0 200 30.29;" xml:space="preserve">
<style type="text/css">
	.st0{fill:#FFFFFF;}
	.st1{fill:#EC008C;}
</style>
<g>
	<g>
		<path class="st0" d="M4.88,19.05v-1.1H4.81c-0.33,0.54-0.91,1.29-2.1,1.29C0.91,19.23,0,18.2,0,15.89v-1c0-2.2,1.29-2.83,3.04-3.6
			c1.57-0.68,1.85-0.98,1.85-1.61V9.07c0-0.93-0.26-1.33-1.03-1.33c-0.82,0-1.15,0.44-1.15,1.36v1.31H0.37V9.28
			c0-2.22,0.96-3.67,3.58-3.67c2.52,0,3.51,1.31,3.51,3.72v9.72H4.88z M4.88,15.77v-3.39c-0.21,0.23-0.42,0.35-1.29,0.82
			C2.8,13.67,2.57,14,2.57,14.96v0.82c0,0.82,0.23,1.4,1.12,1.4C4.63,17.18,4.88,16.59,4.88,15.77z"/>
		<path class="st0" d="M17.01,5.79l-2.55,13.25h-2.85L9.07,5.79h2.64l1.45,8.86h0.02l1.47-8.86H17.01z"/>
		<path class="st0" d="M23.07,19.05v-1.1H23c-0.33,0.54-0.91,1.29-2.1,1.29c-1.8,0-2.71-1.03-2.71-3.34v-1c0-2.2,1.29-2.83,3.04-3.6
			c1.57-0.68,1.85-0.98,1.85-1.61V9.07c0-0.93-0.26-1.33-1.03-1.33c-0.82,0-1.15,0.44-1.15,1.36v1.31h-2.34V9.28
			c0-2.22,0.96-3.67,3.58-3.67c2.52,0,3.51,1.31,3.51,3.72v9.72H23.07z M23.07,15.77v-3.39c-0.21,0.23-0.42,0.35-1.29,0.82
			c-0.79,0.47-1.03,0.79-1.03,1.75v0.82c0,0.82,0.23,1.4,1.12,1.4C22.81,17.18,23.07,16.59,23.07,15.77z"/>
		<path class="st0" d="M27.9,3.2h2.57v2.01H27.9V3.2z M27.9,5.79h2.57v13.25H27.9V5.79z"/>
		<path class="st0" d="M32.81,3.2h2.57v15.85h-2.57V3.2z"/>
		<path class="st0" d="M42.44,19.05v-1.1h-0.07c-0.33,0.54-0.91,1.29-2.1,1.29c-1.8,0-2.71-1.03-2.71-3.34v-1
			c0-2.2,1.29-2.83,3.04-3.6c1.57-0.68,1.85-0.98,1.85-1.61V9.07c0-0.93-0.26-1.33-1.03-1.33c-0.82,0-1.15,0.44-1.15,1.36v1.31
			h-2.34V9.28c0-2.22,0.96-3.67,3.58-3.67c2.52,0,3.51,1.31,3.51,3.72v9.72H42.44z M42.44,15.77v-3.39
			c-0.21,0.23-0.42,0.35-1.29,0.82c-0.79,0.47-1.03,0.79-1.03,1.75v0.82c0,0.82,0.23,1.4,1.12,1.4
			C42.18,17.18,42.44,16.59,42.44,15.77z"/>
		<path class="st0" d="M47.28,3.2h2.57v3.95h0.05c0.33-0.75,0.93-1.54,2.34-1.54c1.61,0,2.5,1.03,2.5,3.34v6.94
			c0,2.31-1,3.34-2.62,3.34c-1.4,0-1.89-0.77-2.22-1.52h-0.05v1.33h-2.57V3.2z M52.16,9.07c0-0.82-0.23-1.36-1.15-1.36
			c-0.82,0-1.15,0.47-1.17,1.19v7.08c0.02,0.7,0.35,1.17,1.17,1.17c0.89,0,1.15-0.54,1.15-1.36V9.07z"/>
		<path class="st0" d="M57,3.2h2.57v15.85H57V3.2z"/>
		<path class="st0" d="M69.34,13.81v1.57c0,2.38-1.12,3.86-3.67,3.86c-2.57,0-3.81-1.66-3.81-4.02V9.63c0-2.38,1.24-4.02,3.81-4.02
			c2.55,0,3.67,1.47,3.67,3.86v3.2h-4.91v2.94c0,0.91,0.42,1.5,1.29,1.5c0.84,0,1.19-0.56,1.19-1.5v-1.8H69.34z M64.43,10.8h2.43
			V9.23c0-0.91-0.35-1.5-1.19-1.5c-0.86,0-1.24,0.58-1.24,1.5V10.8z"/>
		<path class="st0" d="M74.9,3.2h2.57v2.01H74.9V3.2z M74.9,5.79h2.57v13.25H74.9V5.79z"/>
		<path class="st0" d="M84.67,9.07c0-0.82-0.23-1.36-1.12-1.36c-0.89,0-1.17,0.54-1.17,1.36v9.98h-2.57V5.79h2.57v1.36h0.05
			c0.33-0.77,0.93-1.54,2.31-1.54c1.61,0,2.5,1.03,2.5,3.34v10.1h-2.57V9.07z"/>
	</g>
	<g>
		<path class="st0" d="M174.67,9.07c0-0.82-0.23-1.36-1.12-1.36c-0.89,0-1.17,0.54-1.17,1.36v9.98h-2.57V5.79h2.57v1.36h0.05
			c0.33-0.77,0.93-1.54,2.31-1.54c1.61,0,2.5,1.03,2.5,3.34v10.1h-2.57V9.07z"/>
		<path class="st0" d="M179.48,15.21V9.63c0-2.38,1.24-4.02,3.81-4.02c2.55,0,3.79,1.64,3.79,4.02v5.59c0,2.36-1.24,4.02-3.79,4.02
			C180.72,19.23,179.48,17.57,179.48,15.21z M184.51,15.61V9.23c0-0.91-0.37-1.5-1.22-1.5c-0.86,0-1.24,0.58-1.24,1.5v6.38
			c0,0.91,0.37,1.5,1.24,1.5C184.13,17.11,184.51,16.52,184.51,15.61z"/>
		<path class="st0" d="M200,5.79l-1.99,13.25h-2.31l-1.26-8.18l-1.38,8.18h-2.29l-2.01-13.25h2.59l0.89,7.95h0.02l1.33-7.95h1.89
			l1.33,7.95h0.02l0.86-7.95H200z"/>
	</g>
	<g>
		<path class="st1" d="M111.28,19.32c0.83,2.42-0.21,4.51-1.61,5.85c-1.2,1.58-2.8,2.79-4.78,3.83c-0.06,0.09-0.21,0.11-0.2,0.19
			c-0.51,0.12-1.08,0.4-1.5,0.66c-0.84,0.21-1.51,0.31-2.41,0.45c-0.4-0.13-0.88-0.06-1.31-0.11c-0.67-0.13-1.1-0.48-1.73-0.81
			c-0.37-0.64-0.96-1.05-1.43-1.59c-0.05-0.07-0.16-0.05-0.2-0.08c-0.17-0.36-0.42-0.51-0.77-0.77c0.04-0.24,0.03-0.28,0.04-0.47
			c0.07,0.18,0.07,0.45,0.26,0.46c-0.26-1.2,0.29-2.56,1-3.4c0.14-0.06,0.21-0.11,0.19-0.22c0.15-0.02,0.09-0.13,0.16-0.18
			c0.19,0.01,0.09-0.13,0.21-0.11l-0.01-0.08l-0.04-0.03c0.01,0.08-0.17,0.1-0.16,0.22c-0.09-0.06-0.11,0.06-0.16,0.18
			c-0.12-0.02-0.13,0.14-0.19,0.22c-0.67,0.61-1,1.43-1.22,2.43c-0.15-0.25,0.24-0.69,0.19-0.99c0.29-0.82,0.88-1.45,1.34-2.14
			c0.37-0.06,0.37-0.33,0.62-0.41c0.06,0.41-0.19,0.76-0.32,1.13c0.05,0.07,0.13-0.17,0.24-0.15c-0.08,0.21-0.28,0.39-0.39,0.68
			c0.08,0.03,0.22-0.3,0.37-0.33c-0.11,0.25-0.19,0.49-0.26,0.81c0,0-0.04,0.01-0.03,0.04c0.01,0.04,0.07-0.01,0.03-0.04
			c0.19-0.03,0.09-0.17,0.2-0.19c0.03,0.19-0.17,0.37,0.09,0.57c-0.26,0.27-0.09,0.67-0.24,1.16c0.19-0.03,0.06-0.32,0.18-0.34
			c-0.04,0.24,0.12,0.29,0.03,0.46c0.01,0.08,0.11-0.02,0.13,0.1c0,0.5,0.2,0.78,0.4,1.13c-0.01,0.66,0.59,0.87,1.14,0.75
			c0.18-0.07,0.15,0.01,0.23,0.04c0.1-0.09-0.02-0.11-0.07-0.22l0.07-0.01c0.19-0.03,0.09,0.1,0.15,0.21
			c0.7-0.15,1.59-0.32,2.45-0.65c-0.01-0.08-0.05-0.07-0.07-0.18c0.11-0.02,0.1,0.14,0.14,0.17c0.13-0.14,0.43-0.18,0.59-0.36
			c0.11-0.02,0.12,0.02,0.13,0.13c0.2-0.46,0.76-0.5,1.27-0.89c0.1,0.14,0.24-0.19,0.42-0.22c0.03-0.08-0.18,0.07-0.12-0.06
			c0.41-0.03,0.71-0.34,0.97-0.61c0.35-0.17,0.54-0.47,0.66-0.64c-0.02,0.12,0.43-0.14,0.37-0.33c0.17,0.09,0.37-0.1,0.22-0.3
			c0.4,0.09,0.49-0.5,0.78-0.62c0.04-0.01,0.03-0.04,0.03-0.04c0.31-0.24,0.5-0.7,0.68-1.03c0.03-0.08,0.17-0.14,0.19-0.22
			c-0.09-0.1-0.21,0.11-0.19,0.22c-0.15,0.02-0.06,0.12-0.17,0.1c0.25-0.58,0.68-1.03,0.8-1.71c0.06-0.09,0.09-0.13,0-0.27
			c-0.03,0.08,0.02,0.15,0,0.27c-0.07,0.01-0.11,0.02-0.14,0.06c0.05-0.43,0.29-0.86,0.19-1.46l0.07-0.01
			c-0.18-0.2-0.11-0.68-0.24-1.08c-0.18-0.2-0.15-0.48-0.3-0.73c-2.29-1.77-6.36-0.71-9.88-0.59c-1.16-0.09-2.26-0.31-3.15-0.94
			c-0.33-0.41-0.75-0.66-0.92-1.25c-0.5-0.5-0.87-0.95-0.97-1.82c0.06-0.12-0.04-0.5,0.09-0.67c0.17-0.14,0.18-0.3,0.18-0.53
			c0.23-0.5,0.49-1.04,0.82-1.56c0.01,0.08-0.02,0.12-0.04,0.2c1-1.66,2.05-3.21,3.23-4.71c0.62-0.68,1.21-1.27,1.75-2.01
			c0.25-0.08,0.45-0.3,0.61-0.52c-0.21,0.11-0.34,0.25-0.51,0.39c0.49-0.5,0.91-1.03,1.54-1.4c-0.22,0.3-0.65,0.49-0.89,0.87
			c0.54-0.43,1.17-1.03,1.75-1.47l0.07-0.01c-0.06-0.15-0.09-0.1-0.07,0.01c-0.4,0.14-0.54,0.43-0.86,0.6
			c0.79-0.82,1.81-1.59,2.94-1.92c-0.06-0.15-0.09-0.06-0.2-0.08c-0.02-0.11,0.01-0.16,0.13-0.14c-0.01-0.08-0.05-0.07-0.12-0.06
			c-0.01-0.04-0.01-0.08-0.05-0.07c0.02-0.12,0.45-0.03,0.61,0.02c0.03-0.04,0.18-0.07,0.25-0.08c1.82,0.22,4.06,0.14,4.74,2.08
			c0.19,1.48-0.42,2.42-0.37,3.76c-0.22,0.07-0.48,0.11-0.48,0.34c-0.16-0.32-0.72,0-0.91-0.24c-0.4,0.14-0.8-0.22-1.19-0.05
			c-0.03-0.19,0.05-0.2,0.03-0.31c-0.21-0.12-0.02-0.35-0.14-0.67c0.17,0.09-0.02-0.15,0.13-0.14c-0.11-0.21-0.05-0.34-0.14-0.44
			c0.07-0.05,0.09-0.13,0.14-0.06c-0.02-0.65,0.08-0.94,0.24-1.62c-0.01-0.04-0.04-0.03-0.08-0.03c-0.03-0.19,0.03-0.08,0.09-0.13
			c-0.14-0.17,0.06-0.36-0.01-0.54l-0.09-0.1c-1.86,0.75-3.16,2-4.47,3.13c-1.76,1.66-3.19,3.51-4.54,5.38
			c0.02,0.15-0.03,0.08-0.01,0.19c-0.7,0.88-1.13,2.03-1.59,3.03c-0.02,0.35-0.09,0.67-0.15,0.99c0.18,0.17,0.18,0.43,0.4,0.6
			c0.74,0.08,1.43,0.13,2.28-0.04c1.11,0.02,2.25-0.23,3.61-0.33c1.1-0.02,2.3,0.07,3.41,0.36c0.01,0.04,0.08,0.03,0.1,0.14
			c0.78,0.11,1.58,0.37,2.35,0.64c1.24,0.66,2.33,1.53,3.15,2.91C111.17,19.1,111.14,19.18,111.28,19.32z M93.48,12.11
			c0.15,0.01,0.03,0.19,0,0.23C93.39,12.24,93.6,12.17,93.48,12.11z M93.55,13.03c0.17-0.64,0.35-1.21,0.52-1.82l0.3-0.51
			c-0.13,0.17-0.26,0.31-0.3,0.51C93.8,11.71,93.63,12.32,93.55,13.03c-0.11,0.05-0.09,0.13-0.01,0.19
			C93.61,13.21,93.51,13.07,93.55,13.03z M93.64,11.89c0.02-0.12,0.03-0.28,0.09-0.4C93.83,11.63,93.66,11.78,93.64,11.89z
			 M93.64,11.89l0.01,0.04L93.64,11.89z M93.76,11.45c0.03-0.08,0.01-0.19,0.08-0.21C93.82,11.33,93.87,11.43,93.76,11.45z
			 M93.85,12.29l-0.07,0.01l0.01,0.08l0.07-0.01L93.85,12.29z M93.83,11.17c0.11-0.06,0.09-0.17,0.15-0.26
			C93.97,11.07,93.98,11.15,93.83,11.17z M93.88,12.01c0.04,0.03-0.06,0.12,0.02,0.15C93.9,12.12,94.07,11.98,93.88,12.01z
			 M93.98,10.91c-0.01-0.04,0.03-0.04,0.11-0.05C94.09,10.9,94.02,10.91,93.98,10.91z M94.82,10.17c-0.15,0.02-0.19,0.22-0.23,0.46
			l-0.04,0.01c0.01,0.04-0.02,0.12-0.01,0.19c-0.14,0.06-0.16,0.18-0.26,0.31c-0.11,0.05-0.12,0.21-0.21,0.38
			c0.14-0.1,0.19-0.22,0.21-0.38c0.18-0.07,0.19-0.22,0.26-0.31c0.03-0.04,0.1-0.09,0.05-0.2C94.75,10.49,94.76,10.29,94.82,10.17z
			 M94.09,10.86c-0.01-0.04-0.02-0.11,0.02-0.12C94.12,10.82,94.12,10.85,94.09,10.86z M94.11,10.74c-0.05-0.11,0.03-0.04,0.01-0.16
			l0.04-0.01C94.17,10.69,94.14,10.7,94.11,10.74z M94.33,10.44l-0.04,0.01l-0.01-0.08l0.04-0.01L94.33,10.44z M94.49,10.29
			c-0.02-0.11,0.02-0.12,0.09-0.13C94.59,10.2,94.57,10.28,94.49,10.29z M94.59,10.16c-0.02-0.11,0.09-0.13,0.08-0.24l0.04-0.01
			C94.72,10.03,94.66,10.11,94.59,10.16z M94.67,9.69c0.01,0.04,0.02,0.11-0.01,0.16C94.61,9.85,94.59,9.66,94.67,9.69z M94.7,9.91
			c-0.01-0.04-0.01-0.04,0.03-0.04C94.74,9.91,94.74,9.91,94.7,9.91z M94.73,9.64c-0.09-0.06,0.04-0.2,0.04-0.24
			C94.89,9.42,94.8,9.55,94.73,9.64z M94.73,9.87c-0.01-0.08,0.08-0.21,0.15-0.25C94.87,9.77,94.84,9.82,94.73,9.87z M94.88,9.62
			c0.01-0.16,0-0.23,0.19-0.26C95.1,9.51,94.91,9.53,94.88,9.62z M94.96,9.87c0.21-0.15,0.38-0.48,0.36-0.6
			C95.23,9.41,95.11,9.62,94.96,9.87C94.92,9.88,94.89,9.92,94.9,10C94.98,10.02,94.97,9.91,94.96,9.87z M95.1,9.04
			c-0.09-0.06,0.05-0.16,0.05-0.2C95.26,8.86,95.16,8.92,95.1,9.04z M95.07,9.36c0.01-0.16,0.04-0.24,0.18-0.3
			C95.23,9.18,95.13,9.27,95.07,9.36z M95.24,26.17l0.15-0.02c0.02,0.11-0.14,0.1-0.05,0.16C95.23,26.32,95.32,26.19,95.24,26.17z
			 M95.25,9.06c-0.01-0.04,0.02-0.12,0.06-0.12C95.32,9.01,95.29,9.05,95.25,9.06z M95.3,26.77c0.01,0.08-0.04,0.01-0.03,0.08
			C95.26,26.78,95.3,26.77,95.3,26.77z M95.83,8.12c-0.18,0.3-0.33,0.55-0.52,0.81c0.11-0.29,0.3-0.55,0.45-0.8L95.83,8.12z
			 M95.42,8.41c0.06,0.15-0.05,0.16-0.05,0.2C95.34,8.62,95.34,8.39,95.42,8.41z M95.46,9.14c0.03-0.08,0.11-0.05,0.09-0.17
			c0.15-0.02,0.16-0.18,0.19-0.26c-0.11,0.02-0.13,0.14-0.19,0.26C95.51,9.02,95.34,9.12,95.46,9.14z M95.42,8.41
			c-0.01-0.04-0.01-0.04,0.03-0.04C95.46,8.41,95.46,8.41,95.42,8.41z M95.45,8.37c-0.01-0.08,0.08-0.21,0.16-0.22
			C95.59,8.27,95.56,8.31,95.45,8.37z M95.71,8.06l-0.07,0.01l-0.02-0.11l0.07-0.01L95.71,8.06z M95.72,26.79
			c0.04-0.01,0.04-0.01,0.04,0.03l0.15-0.02C95.93,26.68,95.7,26.71,95.72,26.79z M95.72,8.64c0.34-0.28,0.48-0.58,0.67-0.84
			c0.09-0.13,0.18-0.3,0.36-0.4c-0.3,0.05-0.35,0.21-0.36,0.4C96.08,8,95.97,8.29,95.72,8.64z M95.89,25.45
			c-0.07,0.28-0.14,0.56-0.08,0.94C95.85,26.15,95.97,25.71,95.89,25.45z M95.83,8.12c0.02-0.12,0.11-0.25,0.19-0.26
			C96,7.98,95.98,8.09,95.83,8.12z M95.95,25.36c0.08,0.03,0.05-0.2-0.02-0.15L95.95,25.36z M96,25.2c0.06-0.09,0.15-0.29-0.03-0.19
			C96.05,25.04,95.92,25.17,96,25.2z M96.04,25.42c0.11,0.21-0.08,0.24-0.04,0.47C96.06,25.81,96.23,25.43,96.04,25.42z M96.02,7.86
			c0.08-0.21,0.18-0.34,0.32-0.4C96.32,7.58,96.19,7.75,96.02,7.86z M96.13,24.75c0.03-0.04,0.11-0.02,0.1-0.09
			C96.11,24.64,96.05,24.77,96.13,24.75z M96.31,24.73c-0.02,0.12-0.05,0.16-0.1,0.36l-0.04,0.01c0,0,0.01,0.04,0.01,0.08
			c0.04-0.01,0.03-0.04,0.03-0.08C96.31,24.99,96.39,24.75,96.31,24.73z M96.2,7.29c0.07-0.05,0.05-0.16,0.09-0.17
			C96.34,7.23,96.31,7.27,96.2,7.29z M96.33,24.37c-0.03,0.04-0.07,0.01-0.07,0.05C96.3,24.42,96.34,24.41,96.33,24.37z M96.68,6.98
			L96.4,7.33C96.34,7.23,96.54,7.04,96.68,6.98z M96.58,6.8c-0.01-0.08,0.06-0.09,0.05-0.16C96.71,6.63,96.65,6.79,96.58,6.8z
			 M96.8,6.77c0.01,0.08-0.05,0.16-0.12,0.21C96.7,6.86,96.69,6.79,96.8,6.77z M96.71,6.63c-0.01-0.04,0.03-0.08,0.06-0.09
			C96.85,6.57,96.78,6.62,96.71,6.63z M96.73,7.28c0.11-0.06,0.13-0.14,0.11-0.25C96.77,7.05,96.75,7.16,96.73,7.28z M96.77,6.54
			c-0.01-0.04,0.07-0.05,0.07-0.05S96.84,6.53,96.77,6.54z M97.65,5.87c-0.39,0.18-0.51,0.62-0.85,0.9c0.32-0.67,0.86-1.1,1.27-1.63
			C98.05,5.46,97.72,5.55,97.65,5.87z M96.93,6.36c-0.02-0.11,0.01-0.16,0.13-0.17C97.02,6.23,97.08,6.34,96.93,6.36z M96.98,6.94
			c0.19-0.03,0.38-0.25,0.34-0.48c0.31-0.2,0.49-0.5,0.64-0.79c0.41-0.3,0.8-0.74,0.94-1.07c-0.33,0.32-0.61,0.71-0.94,1.07
			c-0.24,0.19-0.42,0.49-0.64,0.79C97.19,6.56,97.11,6.76,96.98,6.94z M97.08,6.07c0.03-0.04,0.06-0.12,0.17-0.14
			C97.22,6.01,97.15,6.06,97.08,6.07z M97.38,7.07c-0.07,0.05-0.11,0.02-0.11,0.05C97.31,7.12,97.39,7.1,97.38,7.07z M97.79,5.27
			l-0.01-0.08c0.04-0.01,0.03-0.04,0.03-0.04C97.88,5.13,97.88,5.37,97.79,5.27z M97.98,5l-0.01-0.04C98.11,4.91,97.83,5.26,97.98,5
			z M98.07,5.14c0.22-0.27,0.41-0.53,0.65-0.72C98.61,4.67,98.42,4.9,98.07,5.14z M98.21,4.78c-0.01-0.04,0.03-0.04,0.03-0.04
			C98.25,4.77,98.2,4.74,98.21,4.78z M98.8,4.41c0.04-0.24,0.34-0.28,0.41-0.53C99.3,3.99,98.94,4.32,98.8,4.41z M98.82,5.3
			C98.79,5.34,98.83,5.34,98.82,5.3C98.86,5.29,98.82,5.26,98.82,5.3z M98.92,28.03c0.01,0.04-0.07,0.05-0.11,0.06
			C98.81,28.05,98.85,28.08,98.92,28.03z M98.86,4.06c0.03-0.08,0.09-0.13,0.09-0.17C99.06,3.91,98.97,4.04,98.86,4.06z M98.98,4.62
			c0.19,0.01,0.19-0.26,0.05-0.2C99.05,4.53,98.9,4.55,98.98,4.62z M99.06,3.87c0.03-0.04,0.03-0.08,0.14-0.1
			C99.16,3.82,99.17,3.85,99.06,3.87z M99.13,4.36c0.15-0.02,0.21-0.11,0.24-0.15C99.27,4.23,99.16,4.28,99.13,4.36z M99.4,3.86
			c-0.12-0.02,0.01-0.19,0.09-0.13C99.46,3.77,99.39,3.78,99.4,3.86z M99.69,3.27c-0.06,0.09-0.09,0.13-0.23,0.23
			C99.43,3.35,99.58,3.33,99.69,3.27z M99.66,3.85c-0.01-0.04,0.06-0.09-0.01-0.08C99.65,3.78,99.62,3.82,99.66,3.85z M99.8,28.05
			c-0.01-0.04-0.01-0.04-0.04-0.03c-0.02-0.11,0.21-0.11,0.19,0.01L99.8,28.05z M99.76,3.22c0.03-0.08,0.02-0.12,0.13-0.14
			C99.98,3.19,99.87,3.24,99.76,3.22z M99.89,3.09c0.14-0.1,0.15-0.29,0.33-0.32C100.08,2.86,100.07,3.06,99.89,3.09z M99.94,4.16
			c0.07-0.05,0.11-0.02,0.11-0.05C100.01,4.11,99.93,4.12,99.94,4.16z M100.04,3.33c0.03-0.04,0.07-0.01,0.07-0.05
			C100.07,3.29,100.03,3.3,100.04,3.33z M100.21,2.73c0.16-0.18,0.33-0.32,0.54-0.47C100.82,2.44,100.42,2.58,100.21,2.73z
			 M100.54,3.6c0,0,0.04-0.01,0.03-0.04C100.57,3.56,100.53,3.57,100.54,3.6z M100.77,28.17c-0.01-0.08-0.06-0.15-0.09-0.06
			l0.01,0.08L100.77,28.17z M100.84,2.86c0.02-0.12,0.09-0.13,0.08-0.21C100.85,2.67,100.69,2.88,100.84,2.86z M101.01,3.18
			c-0.04,0.01-0.04,0.01-0.07,0.01l0.02,0.11c0.04-0.01,0.04-0.01,0.07-0.01L101.01,3.18z M101.03,2.6l0.2-0.19
			c0.04-0.01,0.04-0.01,0.03-0.04c0.08,0.03,0.11-0.02,0.11-0.05c0.11-0.06,0.17-0.14,0.27-0.2c-0.15,0.02-0.22,0.07-0.27,0.2
			c-0.07,0.01-0.11,0.02-0.11,0.05c-0.04,0.01-0.03,0.04-0.03,0.04C101.12,2.43,101.05,2.48,101.03,2.6
			C100.88,2.59,101.04,2.68,101.03,2.6z M100.99,2.1c-0.01-0.08,0.03-0.08,0.03-0.08l0.04-0.01C101.1,2.09,101.03,2.1,100.99,2.1z
			 M101.05,28.01c0.04,0.03,0.04,0.03,0.04,0.03L101.05,28.01z M101.22,27.9c-0.04,0.01-0.07,0.01-0.07,0.05
			C101.19,27.95,101.23,27.94,101.22,27.9z M101.56,27.85c-0.04,0.01-0.23-0.04-0.22,0.03C101.38,27.92,101.54,27.97,101.56,27.85z
			 M101.4,1.81c0.15-0.25,0.36-0.4,0.49-0.5C102.02,1.37,101.6,1.62,101.4,1.81z M101.8,27.74c-0.15,0.02-0.19,0.03-0.22,0.07
			C101.57,27.96,101.89,27.8,101.8,27.74z M101.95,27.44c-0.03,0.04-0.03,0.08-0.14,0.1C101.8,27.47,101.84,27.46,101.95,27.44z
			 M101.87,1.89c0.07-0.01,0.25-0.12,0.09-0.13C101.98,1.84,101.86,1.82,101.87,1.89z M102.02,27.66l-0.01-0.08
			c-0.07,0.01-0.15,0.02-0.13,0.14C101.99,27.71,101.98,27.67,102.02,27.66C102.03,27.74,102.2,27.56,102.02,27.66z M102.05,1.55
			c0.04-0.01,0.04-0.01,0.07-0.05c0.12,0.02,0.14-0.06,0.17-0.14c0.04-0.01,0.07-0.01,0.07-0.05c-0.04,0.01-0.07,0.01-0.07,0.05
			c-0.07,0.01-0.14,0.1-0.17,0.14C102.08,1.51,102.04,1.52,102.05,1.55C101.9,1.54,102.07,1.71,102.05,1.55z M102.05,1.28
			c0.02-0.12,0.01-0.16,0.16-0.18C102.19,1.22,102.12,1.27,102.05,1.28z M102.23,27.52c0.01,0.04-0.02,0.12-0.05,0.16
			C102.26,27.7,102.3,27.5,102.23,27.52z M102.38,27.26c-0.01-0.08,0.11-0.05,0.09-0.13C102.66,27.14,102.46,27.29,102.38,27.26z
			 M102.46,0.99c0.03-0.04,0.02-0.12,0.13-0.14C102.53,0.94,102.53,0.98,102.46,0.99z M102.57,1.2c0.01,0.04,0.09,0.06,0.13,0.1
			C102.68,1.22,102.64,1.19,102.57,1.2z M103.01,1.1l-0.02-0.15C102.87,0.93,102.9,1.11,103.01,1.1z M103.39,0.84
			c0.04-0.01,0.11-0.02,0.11-0.05C103.42,0.8,103.38,0.81,103.39,0.84z M103.54,0.36l-0.04,0.01l-0.02-0.11l0.04-0.01L103.54,0.36z
			 M103.56,26.81l-0.04,0.01l0.01,0.08l0.04-0.01L103.56,26.81z M103.62,0.85l-0.04,0.01l0.01,0.04l0.04-0.01L103.62,0.85z
			 M103.59,0.47c-0.01-0.08,0.1-0.09,0.11-0.02C103.68,0.53,103.66,0.38,103.59,0.47z M103.77,0.13c0.01,0.04-0.03,0.08-0.1,0.09
			C103.66,0.15,103.7,0.14,103.77,0.13z M103.91,26.56c-0.04,0.01-0.07,0.05-0.05,0.16c-0.2-0.08-0.06,0.09,0,0
			C103.93,26.71,103.95,26.59,103.91,26.56C104.1,26.57,103.93,26.48,103.91,26.56z M103.93,0.18c0.04-0.01,0.07-0.01,0.07-0.01
			c0.07-0.05-0.01-0.08-0.08-0.03L103.93,0.18z M104.21,0.25l-0.19,0.03c0,0,0.01,0.04,0.02,0.11
			C104.1,0.31,104.26,0.36,104.21,0.25z M105.33,25.14c0,0-0.01-0.04,0.03-0.04C105.36,25.14,105.36,25.14,105.33,25.14z
			 M105.74,24.85c-0.03,0.04-0.07,0.05-0.18,0.07C105.62,24.86,105.66,24.82,105.74,24.85z M106,25.31c0,0-0.04,0.01-0.02,0.12
			C105.96,25.31,106.02,25.42,106,25.31z M106.43,4.51c0.15,0.01,0.12-0.21-0.02-0.15L106.43,4.51z M106.63,4.55
			c-0.04,0.01-0.04,0.01-0.11,0.02l0.01,0.08c0.07-0.01,0.07-0.01,0.11-0.02L106.63,4.55z M106.64,5.63
			c-0.04,0.01-0.05-0.07-0.07,0.01C106.54,5.72,106.69,5.7,106.64,5.63z M106.69,3.23c-0.08-0.03-0.06,0.09-0.05,0.16
			C106.71,3.38,106.7,3.31,106.69,3.23z M106.7,3.07c-0.04,0.01-0.04,0.01-0.07,0.01l0.01,0.04c0.04-0.01,0.04-0.01,0.07-0.01
			L106.7,3.07z M106.73,2.3c0.04-0.01,0.04-0.01,0.07-0.01l-0.01-0.08c-0.04,0.01-0.04,0.01-0.07,0.01L106.73,2.3z M106.86,24.02
			c-0.01-0.04,0.07-0.05,0.06-0.09l0.04-0.01C107.01,23.99,106.94,24,106.86,24.02z M107.06,23.79c-0.12-0.02-0.02-0.11,0.06-0.12
			C107.08,23.71,107.05,23.76,107.06,23.79z M107.38,23.43c-0.04,0.01-0.04,0.01-0.07,0.01c-0.01-0.04-0.01-0.08,0.06-0.09
			L107.38,23.43z M107.38,23.63c-0.11,0.02,0.01-0.19,0.03-0.04C107.37,23.59,107.37,23.59,107.38,23.63z M107.63,23.09
			c0.02-0.12,0-0.23,0.19-0.26C107.72,22.88,107.77,22.99,107.63,23.09z M108.52,21.21c0.01,0.04-0.03,0.04-0.03,0.04
			C108.49,21.22,108.52,21.21,108.52,21.21z M108.59,21.12c-0.01-0.04-0.01-0.08-0.02-0.11L108.59,21.12z M108.75,21.45
			c-0.07,0.01-0.15,0.02-0.09,0.13C108.69,21.57,108.76,21.52,108.75,21.45z M108.76,21.29c0.04,0.03-0.09,0.13,0.02,0.15
			C108.78,21.36,108.94,21.18,108.76,21.29z"/>
		<path class="st1" d="M122.3,9.85c0.03,0.23,0.11-0.02,0.17,0.09c0.01,0.08-0.09,0.13-0.08,0.24c0.26,0.42-0.16,0.72-0.07,1.01
			c-0.03,0.04,0.02,0.15-0.09,0.13c0,0,0.06-0.09-0.01-0.08c-0.08-0.03-0.06,0.09-0.06,0.12c-0.14,0.06,0,0.27-0.12,0.44
			c-0.02-0.15-0.11,0.02,0,0c-0.03,0.08-0.05,0.16-0.15,0.26c0.09,0.06,0.11-0.02,0.14-0.1c0.16,0.05-0.05,0.2,0.07,0.22
			c-0.2,0.19-0.01,0.43-0.21,0.61c0.09,0.06,0.05,0.11,0.11,0.21c-0.04,0.01-0.08-0.03-0.11,0.02c0.08,0.3-0.26,0.5-0.26,0.77
			c0.15-0.02,0.21-0.34,0.3-0.51c0.06,0.38-0.25,0.81-0.27,1.2c0.01,0.08,0.03-0.08,0.07-0.05c0.07,0.18,0.03,0.46-0.16,0.45
			c0.2,0.08-0.21,0.34-0.11,0.52c-0.19,0.22-0.14,0.6-0.37,0.83c0.04,0.26-0.34,0.52-0.17,0.61c-0.03,0.08-0.03,0.08-0.11,0.06
			c-0.03,0.04-0.06,0.09-0.01,0.19c-0.03,0.08-0.12-0.06-0.1,0.09l-0.07,0.01c0.01,0.04,0.07-0.01,0.08,0.03l0.01,0.04
			c-0.38,0.52-0.55,1.36-0.99,1.74c-0.18,0.53-0.4,1.1-0.8,1.48c-0.07,0.28-0.16,0.45-0.36,0.6c-0.35,0.67-1.01,1.32-1.78,1.55
			c-0.04,0.01-0.04,0.01-0.03,0.04c-0.41,0.03-0.78,0.12-1.15-0.05c-0.12-0.02-0.14-0.17-0.22-0.2c-0.41-0.21-0.88-0.25-1.14-0.48
			c-0.59-0.37-1.19-1.51-1.25-2.16c0.12,0.02,0.03-0.08,0.01-0.16c-0.04,0.01,0.02,0.15-0.01,0.16c-0.24-0.35-0.24-1.04-0.39-1.75
			c0.17,0.13-0.04-0.53-0.1-0.64c0.07-0.01,0.07-0.01,0.09,0.1c0.04-0.24-0.06-0.61-0.06-0.88c-0.01-0.08-0.04,0.01-0.07,0.01
			c0.03-0.04,0.01-0.16,0-0.23c0.18,0.17-0.01-0.04,0.08-0.21c0.04-0.01,0.04-0.01,0.03-0.04c-0.04-0.03-0.04,0.01-0.03,0.04
			c-0.15-0.01-0.02-0.11-0.12-0.25c0.08,0.03,0.09,0.06,0.1,0.18c0.07-0.05-0.03-0.23,0.03-0.28c-0.05-0.11-0.07,0.05-0.16-0.05
			c0.08-0.24,0.03-0.28,0.07-0.51c0.05,0.11,0.05,0.11,0.03-0.08c0.11-0.29-0.06-0.61,0.11-0.75c-0.1-0.18-0.02-0.35-0.09-0.57
			c0.11-0.02,0.1-0.09,0.13-0.14c0.04,0.03,0.04-0.01,0,0l-0.01-0.08c-0.04,0.01-0.11,0.02-0.1,0.09c-0.09-0.1,0.15-0.49,0.03-0.78
			c0.04-0.01,0.15-0.02,0.14-0.06c-0.18-0.2-0.04-0.53-0.01-0.81c0.11-0.02-0.03-0.19-0.06-0.14c0.12-0.21,0.12-0.48,0.05-0.66
			c0.1-0.32,0.03-0.78,0.12-1.18c0.04-0.01,0.03-0.04-0.01-0.04c0.03-0.08,0-0.23,0.03-0.31c-0.73,0.19-2.42,1.34-3,0.27
			c-0.24-0.08-0.13-0.33-0.32-0.37c0.06-0.09-0.02-0.15-0.04-0.26c-0.28-0.11-0.27-0.54-0.25-0.89c0.23,0.04,0.63-0.1,0.96-0.19
			c-0.09-0.06-0.12-0.06-0.16-0.05c0.03-0.04,0.14-0.1,0.21-0.11c0.01,0.04-0.07,0.05-0.06,0.09c0.13,0.13,0.41-0.3,0.53-0.01
			c0.24-0.15,0.56-0.32,0.87-0.52c0.07-0.01,0.14-0.06,0.25-0.08l-0.11,0.02c-0.02-0.11,0.11-0.02,0.05-0.16l0.04-0.01
			c0,0,0.01,0.04,0.08,0.03l0.02,0.11c0.36-0.13,0.75-0.35,1.06-0.51c-0.01-0.04-0.02-0.11,0.01-0.16
			c-0.15,0.02,0.02,0.15-0.17,0.14c0.03-0.08,0.03-0.04,0.02-0.12c0.11-0.02,0.14-0.1,0.16-0.18c0,0,0.04,0.03,0.05,0.07
			c0.02-0.12,0.21-0.11,0.14-0.29c0.21-0.38,0.07-1.05,0.24-1.39c-0.01-0.04-0.07,0.01-0.09-0.06c0.1-0.09,0.05-0.66,0.19-0.76
			c-0.18-0.17-0.04,0.2-0.17,0.14c-0.02-0.15,0.11-0.29,0.04-0.51c0.07-0.01,0.03,0.19,0.13,0.1c0,0-0.02-0.11,0.01-0.19
			c-0.01-0.08-0.04-0.03-0.08-0.03c0.03-0.04,0.03-0.08,0.02-0.12c0.04,0.03,0.03-0.08,0.03-0.08c0.02-0.85,0.13-1.64,0.14-2.53
			c0.03-0.08-0.19,0.03-0.17-0.13c0.26-0.04,0.47-0.15,0.69-0.19c0.46,0.01,0.89,0.09,1.3,0.3c0.78,1.62,0,3.44,0.02,5.02
			c1.1-0.29,2.73-0.81,4.13-0.6c0.01,0.08,0.09,0.06,0.2,0.05c-0.09-0.06-0.16-0.05-0.2-0.05c-0.14-0.13-0.45,0.07-0.52-0.15
			c0.04-0.01,0.27,0.03,0.22-0.07c0.16,0.05,0.55,0.11,0.77,0.31l-0.11,0.02c0.16,0.05,0.27,0.27,0.26,0.42
			c-0.26,0.27-0.92,0.18-1.03,0.47c-0.23-0.04-0.31,0.2-0.49,0.27c0.01,0.04,0.07-0.01,0.09,0.06c-0.22,0.07-0.43,0.18-0.69,0.22
			c-0.07,0.01,0.04,0.03-0.03,0.08c-0.86,0.36-1.64,0.72-2.3,0.9c-0.07,0.01-0.02,0.12-0.06,0.12c-0.22,0.03-0.36,0.13-0.47,0.19
			c-0.13,0.87-0.3,2.02-0.25,2.78c-0.25,1.35-0.16,3.38-0.35,4.88c0.19,1.75,0.14,3.88,1.02,5.36c0.24-0.19,0.39-0.41,0.64-0.56
			l0.01,0.04c-0.01-0.04-0.01-0.04-0.01-0.04c0.04-0.24,0.32-0.4,0.39-0.68c0.04-0.01,0.04-0.01,0.12,0.02
			c0.03-0.31,0.31-0.43,0.38-0.75c0.04-0.01,0.03-0.08,0.18-0.07c-0.09-0.1-0.08-0.03-0.02-0.11c0.09-0.13,0.17-0.37,0.26-0.5
			c0.03-0.08,0.13-0.14,0.16-0.18c0.06-0.09,0-0.23,0.1-0.32c0.06-0.09,0.26-0.27,0.26-0.5c0.04-0.01,0.04-0.01,0.12,0.02
			c0.06-0.12-0.02-0.11-0.03-0.19c0.11-0.02,0.05-0.16,0.24-0.19c-0.04-0.03-0.04-0.03-0.05-0.11c0.11-0.02,0.15-0.49,0.38-0.48
			c-0.1-0.14-0.1-0.14,0.01-0.19l0.02,0.11c0.04-0.01,0.09-0.17,0.01-0.16c0.01-0.16,0.11-0.25,0.18-0.34l0.02,0.11
			c0.04-0.01,0.16-0.22,0.02-0.12c-0.01-0.04,0.03-0.04,0.03-0.08c0,0,0,0-0.01-0.04c0.11-0.25,0.24-0.42,0.36-0.63l0.02,0.11
			c0.07-0.05,0.13-0.14-0.02-0.11c0.12-0.21,0.12-0.44,0.36-0.6c-0.01-0.08,0.03-0.28,0.13-0.37l0.01,0.08
			c0.03-0.04,0.11-0.05,0.09-0.13c0.05-0.16,0.08-0.44,0.28-0.66l0.02,0.15c0.07-0.01,0.05-0.16-0.02-0.15
			c-0.04-0.03-0.01-0.08,0.06-0.09c0.14,0.13,0-0.23,0.1-0.32c0.01,0.08,0.02,0.11,0.09,0.1c0.03-0.04,0.02-0.12-0.09-0.1
			c0.1-0.09,0.09-0.17,0.18-0.3c0.01,0.04,0.01,0.04,0.09,0.1c0.03-0.08-0.02-0.11-0.09-0.1L120.65,13
			c0.11-0.02,0.06-0.12,0.15-0.02c-0.1-0.14,0-0.27,0.12-0.21c-0.1-0.14,0-0.23,0.06-0.32c0.01,0.04,0.04,0.03,0.04,0.03
			c-0.02-0.11-0.01-0.04-0.04-0.03c0.16-0.45,0.37-0.83,0.61-1.25c0.03-0.08,0.03-0.08,0.01-0.16l0.04-0.01
			c0.01,0.04,0.01,0.08,0.05,0.07c0.03-0.04-0.01-0.08-0.05-0.07l-0.01-0.04c0.14-0.06,0.04-0.24,0.22-0.27l-0.02-0.15
			c0.03-0.08,0.14-0.06,0.12-0.21c0.2-0.19,0.21-0.61,0.45-0.8C122.32,9.73,122.43,9.94,122.3,9.85z M109.96,8.36
			c-0.01-0.08,0.03-0.08,0.03-0.08C110,8.35,109.95,8.29,109.96,8.36z M111.28,7.77c-0.44,0.11-0.6,0.32-1.04,0.39
			c0.42-0.22,0.98-0.54,1.42-0.65c-0.06,0.12-0.22,0.07-0.19,0.22l0.07-0.01C111.47,7.82,111.25,7.58,111.28,7.77z M111.08,7.96
			c-0.1,0.09-0.25,0.12-0.39,0.18C110.75,8.05,110.93,8.02,111.08,7.96z M111.72,7.66c-0.03,0.04-0.15,0.02-0.14,0.06l-0.04,0.01
			C111.49,7.66,111.6,7.68,111.72,7.66z M111.66,7.52c-0.01-0.08,0.19-0.22,0.22-0.03L111.8,7.5
			C111.71,7.39,111.71,7.63,111.66,7.52z M111.86,7.37c0.15,0.01,0.09-0.17,0.32-0.13c0.06,0.15-0.21,0.11-0.2,0.19
			c-0.04,0.01-0.03,0.04,0.01,0.04C111.94,7.63,111.9,7.4,111.86,7.37z M111.98,7.43c0,0,0.04-0.01,0.04,0.03
			C111.99,7.47,111.99,7.47,111.98,7.43z M112.18,7.24c0,0,0.04-0.01,0.03-0.04c0.07-0.01,0.08,0.03,0.12,0.02
			c0,0-0.04,0.01-0.03,0.08C112.23,7.31,112.22,7.24,112.18,7.24z M112.36,7.18c0,0,0.07-0.01,0.07-0.05
			c0.12,0.02-0.01,0.19-0.05,0.2C112.41,7.21,112.34,7.3,112.36,7.18z M112.53,15.61C112.39,15.67,112.59,15.75,112.53,15.61
			C112.57,15.6,112.52,15.53,112.53,15.61z M112.58,12.51c-0.07,0.01-0.05-0.11-0.02-0.11C112.68,12.38,112.53,12.44,112.58,12.51z
			 M112.63,17.99c-0.04-0.03-0.13-0.13-0.07-0.18C112.64,17.79,112.62,17.95,112.63,17.99z M112.59,7.18
			c-0.01-0.04,0.07-0.01,0.14-0.06C112.82,7.15,112.68,7.24,112.59,7.18z M112.67,14.08c-0.08-0.03,0.06-0.09-0.02-0.11
			C112.59,14.02,112.56,14.1,112.67,14.08z M112.63,16.52c0.05,0.07-0.09,0.13,0.02,0.11C112.65,16.63,112.71,16.51,112.63,16.52z
			 M112.68,19.06c-0.02,0.12-0.05-0.11-0.06-0.15C112.65,18.83,112.67,18.98,112.68,19.06z M112.7,14.77
			c-0.01-0.04-0.02-0.11-0.05-0.11c-0.01-0.08-0.04,0.01,0,0C112.66,14.74,112.63,14.78,112.7,14.77z M112.71,13.57
			C112.57,13.44,112.69,13.73,112.71,13.57C112.75,13.57,112.7,13.53,112.71,13.57z M112.71,10.64c-0.03,0.08,0.02,0.11-0.02,0.12
			C112.68,10.72,112.67,10.64,112.71,10.64z M112.76,13.14c0,0-0.07,0.01-0.07,0.05C112.69,13.19,112.76,13.18,112.76,13.14z
			 M112.81,10.08l0.01,0.04C112.78,10.12,112.78,10.09,112.81,10.08z M112.88,18.84c-0.05-0.11-0.03-0.23-0.07-0.18
			c-0.03,0.04-0.01,0.16,0.03,0.19c-0.11,0.02,0.02,0.11,0,0L112.88,18.84z M112.82,11.35l-0.01-0.04L112.82,11.35z M112.91,10.45
			c-0.07,0.01,0.02,0.11-0.01,0.16c-0.04,0.01,0.01,0.08,0,0C112.97,10.6,112.92,10.49,112.91,10.45
			C113.02,10.43,112.85,10.31,112.91,10.45z M112.96,10.06l-0.04,0.01L112.96,10.06z M113.19,6.59c-0.07,0.01-0.15-0.01-0.04-0.03
			C113.14,6.55,113.15,6.59,113.19,6.59z M113.15,6.09c0.01-0.16-0.02-0.38,0.08-0.48c0.09,0.06-0.01,0.16,0.05,0.3
			C113.12,5.94,113.3,6.1,113.15,6.09z M113.23,5.42c0.01,0.04,0.02,0.11,0.05,0.11C113.27,5.65,113.16,5.43,113.23,5.42z
			 M113.27,5.18c0.01,0.04,0.08,0.03,0.02,0.11C113.25,5.3,113.24,5.19,113.27,5.18z M113.31,4.67l0.04-0.01
			c0.02,0.15,0.02,0.38-0.07,0.51C113.24,4.99,113.3,4.87,113.31,4.67z M113.34,6.33c0.03-0.04,0.03-0.08,0.02-0.12
			c0.04-0.01-0.01-0.08,0,0C113.32,6.22,113.33,6.29,113.34,6.33C113.19,6.39,113.47,6.43,113.34,6.33z M113.37,6.52
			c-0.01-0.04-0.01-0.04-0.04-0.03c0.01,0.04,0.01,0.08,0.05,0.07L113.37,6.52z M113.36,4.51c0.01,0.08,0.02,0.15-0.01,0.16
			C113.34,4.63,113.32,4.52,113.36,4.51z M113.53,4.14c-0.11,0.02-0.1,0.09-0.09,0.13C113.52,4.33,113.51,4.22,113.53,4.14z
			 M113.45,3.88c0.01,0.04,0.01,0.04,0.01,0.08L113.45,3.88z M113.5,3.68c-0.04,0.01-0.03,0.04-0.03,0.08l-0.01-0.04
			C113.46,3.69,113.49,3.64,113.5,3.68z M113.55,3.52c0.03-0.04,0.04-0.01,0.07-0.05C113.58,3.47,113.54,3.48,113.55,3.52z
			 M115.54,6.03l0.03-0.04c0,0,0.04-0.01,0.07-0.01C115.65,6.01,115.57,6.02,115.54,6.03z M116.08,5.83c-0.05-0.11-0.08-0.03-0.23,0
			C115.83,5.71,116.09,5.63,116.08,5.83z M116.09,5.9c-0.01-0.04,0.03-0.04,0.11-0.05C116.2,5.89,116.12,5.86,116.09,5.9z
			 M116.33,5.75c-0.11,0.02-0.14,0.1-0.22,0.03C116.1,5.71,116.31,5.6,116.33,5.75z M116.31,20.85 M116.34,5.83
			c-0.01-0.08,0.22-0.03,0.16-0.18C116.67,5.74,116.46,5.81,116.34,5.83z M116.47,20.67C116.37,20.73,116.48,20.71,116.47,20.67
			C116.51,20.67,116.43,20.64,116.47,20.67z M116.97,5.69c-0.11,0.02-0.11,0.02-0.29,0.08c0.03-0.08,0.14-0.1,0.16-0.18l0.05,0.07
			l0.04-0.01c0.03-0.08-0.05-0.11-0.09-0.1l-0.01-0.04c0.04-0.01,0.07-0.01,0.11-0.02L116.97,5.69z M116.84,5.56l0.01,0.04
			C116.8,5.6,116.84,5.56,116.84,5.56z M116.98,5.5c0.07-0.01,0.08,0.03,0.09,0.06C116.99,5.57,116.98,5.53,116.98,5.5z
			 M117.37,5.59c-0.07,0.05-0.29,0.12-0.29,0.08C117.11,5.63,117.29,5.53,117.37,5.59z M117.1,5.52c0,0,0.06-0.09,0.11-0.05
			C117.28,5.49,117.08,5.67,117.1,5.52z M117.4,5.51c-0.01-0.08-0.04,0.01-0.07,0.01c-0.06-0.15,0.06-0.09,0.09-0.13
			c0.02,0.11,0.18,0.17,0.35,0.06c-0.05-0.07-0.12-0.02-0.16-0.05c0.15-0.02,0.27,0,0.56-0.09c-0.05,0.2-0.38-0.02-0.31,0.24
			c-0.13-0.1-0.29,0.08-0.49,0.04C117.36,5.51,117.4,5.51,117.4,5.51z M117.67,19.02l-0.04,0.01l0.01,0.04l0.04-0.01L117.67,19.02z
			 M117.96,5.42L118,5.45C118,5.45,117.96,5.46,117.96,5.42z M119.1,5.4c-0.25,0.08-0.78,0.12-1.1,0.05
			c0.07-0.01,0.18-0.07,0.19,0.01c0.04-0.01,0.09-0.13,0.02-0.12c0.02-0.12,0.08,0.03,0.09,0.1c0.03-0.08-0.02-0.15,0.17-0.14
			l0.01,0.04c0,0,0.01,0.04,0.01,0.08l0.22-0.03c-0.01-0.08-0.09-0.06-0.09-0.06c0.03-0.08,0.16,0.05,0.3-0.05
			c-0.03,0.08-0.14,0.1-0.01,0.16c0.07-0.01,0.01-0.16,0.09-0.17C119.02,5.37,119.09,5.36,119.1,5.4z M118.17,18.09
			c-0.04,0.01-0.07,0.01-0.07,0.05C118.14,18.14,118.17,18.13,118.17,18.09z M118.3,17.96c-0.01-0.08-0.09-0.06-0.07,0.01
			C118.23,17.97,118.31,18,118.3,17.96z M118.44,5.35c0,0-0.12-0.02-0.11,0.02C118.4,5.35,118.42,5.47,118.44,5.35z M118.48,5.34
			c-0.01-0.04,0.07-0.05,0.07-0.01C118.56,5.41,118.51,5.34,118.48,5.34z M118.54,17.3c0.01,0.04-0.03,0.08,0.01,0.08
			C118.55,17.34,118.66,17.32,118.54,17.3z M118.88,16.79c-0.04,0.01-0.2,0.19-0.04,0.2C118.74,16.88,118.89,16.86,118.88,16.79
			C118.91,16.74,118.87,16.75,118.88,16.79z M118.81,16.6c-0.01-0.04-0.01-0.04,0.03-0.04C118.85,16.6,118.85,16.6,118.81,16.6z
			 M118.99,16.54c0.01,0.04-0.14,0.1-0.05,0.16C118.93,16.62,119.11,16.56,118.99,16.54z M119.06,16.22l-0.04,0.01
			C119.02,16.22,119.01,16.15,119.06,16.22z M119.08,16.37C118.98,16.46,119.11,16.56,119.08,16.37
			C119.11,16.33,119.08,16.33,119.08,16.37z M119.36,15.98c-0.07,0.01-0.07,0.01-0.11,0.02l0.01,0.08c0.04-0.01,0.04-0.01,0.11-0.02
			L119.36,15.98z M119.39,15.66l-0.01-0.04L119.39,15.66z M119.46,15.62c-0.03,0.08-0.05,0.2,0.03,0.19
			C119.44,15.73,119.58,15.67,119.46,15.62z M119.65,15.35c0.01,0.08-0.04,0.01-0.03,0.08C119.62,15.44,119.66,15.43,119.65,15.35z
			 M119.89,14.97c-0.07,0.01-0.07,0.01-0.11,0.02l0.01,0.08c0.04-0.01,0.04-0.01,0.11-0.02L119.89,14.97z M120.04,14.44
			c-0.07,0.01-0.07,0.05-0.11,0.05c-0.01-0.04-0.02-0.11,0.02-0.12C120.03,14.37,120.03,14.37,120.04,14.44z M120.01,14.72
			l-0.07,0.01l0.01,0.04C120.02,14.79,120.01,14.76,120.01,14.72C120.08,14.67,120,14.68,120.01,14.72z M120.19,14.15
			c0.04,0.03,0.04,0.03,0.04,0.03L120.19,14.15z M120.66,13.54c-0.03,0.04-0.07,0.01-0.07,0.05
			C120.63,13.58,120.63,13.58,120.66,13.54z M120.7,17.24l-0.01-0.04C120.73,17.19,120.73,17.19,120.7,17.24z M120.85,13.04
			c-0.04,0.01-0.07,0.01-0.07,0.05C120.82,13.09,120.86,13.08,120.85,13.04z M120.93,12.84c-0.06,0.09-0.09,0.13,0.02,0.11
			C120.95,12.91,120.98,12.91,120.93,12.84z M121.24,11.63l0.04-0.01c0.01,0.08-0.02,0.12-0.01,0.16
			C121.15,11.76,121.22,11.71,121.24,11.63z M121.33,11.97c0.05,0.11-0.19,0.26-0.1,0.32C121.29,12.2,121.49,11.98,121.33,11.97z
			 M121.47,14.11c0,0-0.04,0.01-0.03,0.04C121.44,14.11,121.48,14.14,121.47,14.11z M121.46,13.99
			C121.49,13.99,121.44,13.92,121.46,13.99C121.42,14.04,121.46,14.03,121.46,13.99z M121.52,11.47c-0.04,0.01-0.07,0.01-0.07,0.05
			C121.49,11.52,121.53,11.51,121.52,11.47z M121.53,14.72c-0.04,0.01-0.04,0.01-0.07,0.01l0.01,0.08c0.04-0.01,0.04-0.01,0.07-0.01
			L121.53,14.72z M121.59,11.19c-0.11,0.02-0.1-0.14-0.03-0.19C121.64,11.03,121.5,11.09,121.59,11.19z M121.54,14.56
			c0.01,0.04-0.01,0.16,0.02,0.15C121.6,14.7,121.66,14.54,121.54,14.56z M121.65,11.53l-0.07,0.01l0.01,0.04l0.07-0.01
			L121.65,11.53z M121.64,10.99c-0.07,0.01-0.02-0.15-0.03-0.19C121.69,10.83,121.58,10.88,121.64,10.99z M121.72,14.45
			c-0.01-0.04-0.01-0.04,0.03-0.04C121.76,14.45,121.76,14.45,121.72,14.45z M121.75,14.41c-0.02-0.11,0.09-0.13,0.09-0.17
			C121.92,14.27,121.79,14.41,121.75,14.41z M121.84,11.08C121.73,11.09,121.9,11.22,121.84,11.08
			C121.95,11.06,121.82,10.92,121.84,11.08z M121.96,10.36c-0.04,0.01-0.1,0.09-0.13,0.14C121.75,10.47,121.9,10.25,121.96,10.36z
			 M121.86,13.93c-0.04,0.01-0.01-0.08-0.02-0.11C121.93,13.84,121.85,13.85,121.86,13.93z M121.91,10.76
			c0.09,0.06-0.04,0.2,0.03,0.19C121.93,10.91,122.02,10.78,121.91,10.76z M121.97,10.21c0,0-0.01-0.08,0.03-0.08
			C122.01,10.2,122.02,10.24,121.97,10.21z M122.05,13.13c0.01,0.08-0.02,0.12-0.01,0.16C121.95,13.26,121.97,13.1,122.05,13.13z
			 M122.04,11.62c-0.04,0.01-0.04,0.01-0.03,0.04C122,11.63,122.05,11.66,122.04,11.62z M122.09,9.96l0.04-0.01
			c0.01,0.04-0.03,0.08-0.03,0.08C121.99,10.05,122.01,9.97,122.09,9.96z M122.04,10.62l-0.01-0.04L122.04,10.62z M122.11,9.87
			c0,0-0.01-0.04,0.03-0.04C122.15,9.87,122.15,9.87,122.11,9.87z M122.14,9.83c0,0-0.01-0.04,0.03-0.04
			C122.18,9.83,122.18,9.83,122.14,9.83z M122.15,11.37l0.04-0.01c0.01,0.04,0.01,0.08-0.03,0.08
			C122.13,11.46,122.16,11.41,122.15,11.37z M122.26,11.55c0.01,0.08-0.02,0.12-0.06,0.09C122.15,11.61,122.18,11.56,122.26,11.55z
			 M122.22,11.33c0.01,0.04,0.01,0.04-0.03,0.04C122.19,11.37,122.19,11.33,122.22,11.33z M122.28,10.2
			C122.43,10.21,122.26,10.08,122.28,10.2c-0.04,0.01-0.03,0.04-0.03,0.04c-0.03,0.04,0.01,0.04,0,0
			C122.28,10.24,122.28,10.24,122.28,10.2z M122.38,9.37c0.02,0.11-0.06,0.12-0.05,0.2C122.25,9.54,122.34,9.38,122.38,9.37z
			 M122.37,10.3C122.23,10.4,122.4,10.49,122.37,10.3C122.4,10.26,122.29,10.27,122.37,10.3z M122.52,9.81
			c-0.12-0.02,0.03-0.08-0.02-0.11C122.58,9.69,122.52,9.81,122.52,9.81z"/>
		<path class="st1" d="M132.26,8.53c0.09,0.1,0.09,0.1,0.03,0.19c-0.03,0.04-0.09,0.13-0.21,0.15c-0.02,0.12,0.15,0.01,0.13,0.1
			c-0.14,0.06-0.12-0.02-0.15-0.01c0,0.27-0.3,0.28-0.38,0.48c-0.04,0.01-0.04,0.01-0.07,0.05c0.04,0.03,0.07-0.01,0.07-0.05
			l0.11-0.02c-0.17,0.14-0.06,0.36-0.32,0.36c0.02,0.15,0.22-0.03,0.21,0.12c-0.15,0.02-0.19,0.22-0.32,0.13
			c-0.02,0.12-0.06,0.12-0.04,0.24c-1.01,1.12-2.08,2.29-3.42,3.23l0.05,0.34c-0.04,0.01-0.02-0.11-0.05-0.11
			c-0.11,0.25-0.1,0.59-0.07,0.78c-0.09,0.13-0.16-0.05-0.17,0.14c-0.14,0.06,0.02,0.15,0.05,0.3c-0.18,0.34-0.31,0.97-0.5,1.43
			c-0.15,0.26-0.53,1.01-0.74,0.89c0.06,0.15-0.01,0.16,0,0.23c-0.43,0.41-0.94,0.84-1.58,1.09c-0.1,0.09-0.02-0.11-0.09-0.1
			c-0.04,0.01-0.03,0.08-0.02,0.12c-0.86,0.13-1.58,0.13-2.07-0.34c-0.63-0.4-1.27-0.81-1.63-1.64c-0.27-1-0.28-2.08-0.22-2.86
			c0.1,0.37,0,1,0.05,1.58c0.02,0.38,0.16,0.79,0.16,1.06c0.02,0.11,0.17,0.09,0.12,0.29c0.15,0.01-0.03-0.19,0.13-0.14
			c0,0.23,0.12,0.52,0.25,0.66c0.04,0.03,0.04-0.01,0,0c-0.11-0.21-0.18-0.44-0.25-0.66c-0.4-0.86-0.13-2.07-0.23-2.94
			c0.07-0.05,0.02-0.12,0.01-0.19c-0.03,0.04,0.01,0.08-0.01,0.19c-0.18-0.17,0.1-0.36-0.06-0.65c-0.04,0.24-0.12,0.48-0.11,0.75
			c-0.09-0.06-0.08-0.53,0.05-0.66c0.04-1.47,0.29-2.82,0.8-3.95c-0.09-0.1-0.06,0.12-0.21,0.15c-0.01-0.04,0.03-0.04,0.02-0.12
			c0.04-0.01,0.03-0.04,0.03-0.04c-0.04,0.01-0.03,0.04-0.03,0.04c-0.04,0.01-0.03,0.08-0.06,0.09c0.33-1.56,2.75-1.66,4.19-1.23
			c0.02,0.15,0.17,0.13,0.23,0.23c-0.1,0.09-0.09,0.13,0.03,0.19c0.07-0.01-0.01-0.08-0.02-0.11c0.88,0.75,1.64,1.72,1.93,3.1
			c0.16-0.22,0.53-0.28,0.57-0.51c0.09,0.06,0.14-0.1,0.2-0.19c0.07-0.05,0.05,0.07,0.16,0.05c0.03-0.08,0.14-0.1,0.12-0.21
			c0.17,0.09,0.27-0.23,0.35-0.17c-0.01-0.04,0.05-0.16,0.11-0.29c0.07-0.01,0.03,0.19,0.1,0.18c0.14-0.1,0.24-0.19,0.18-0.3
			c0.19,0.01,0.23-0.27,0.35-0.17c0.04-0.01-0.01-0.04-0.02-0.11c0.54-0.2,0.8-0.74,1.32-0.82c0.06-0.09,0.14-0.29,0.27-0.23
			c0.13-0.17,0.37-0.33,0.62-0.44c0.02,0.11,0.03,0.19,0.14,0.17c-0.03,0.04-0.1,0.09-0.17,0.1c0.17,0.13,0.24-0.19,0.37-0.1
			C132.44,8.47,132.41,8.51,132.26,8.53z M120.94,15.12l-0.01-0.08C121.07,14.98,121.11,15.21,120.94,15.12z M120.97,15.3
			c0.08,0.03,0.01,0.08,0.09,0.06C121.08,15.52,120.9,15.32,120.97,15.3z M121.05,14.56c-0.13-0.13-0.06-0.38-0.07-0.45
			C121.14,14.2,120.98,14.38,121.05,14.56z M121.01,15.57l-0.04-0.03C120.98,15.34,121.14,15.9,121.01,15.57z M120.98,14.61
			c0.07-0.05,0.08,0.26,0.05,0.3C120.91,14.89,121.04,14.75,120.98,14.61z M121.04,12.78c-0.12-0.02,0,0.23,0.02,0.11
			C121.01,12.83,121.04,12.82,121.04,12.78z M121,15.72l0.04-0.01l0.01,0.08l-0.04,0.01L121,15.72z M121.04,13.75
			c0.09,0.06,0.02,0.15,0.03,0.23C120.95,13.95,121.09,13.86,121.04,13.75z M121.08,16.21c0.03-0.04-0.01-0.08-0.03-0.19
			C121.15,15.97,121.2,16.27,121.08,16.21z M121.1,12.46c0.03-0.04,0.06-0.12,0.01-0.19c0.04-0.01,0.03-0.04,0.03-0.08
			c0.04-0.01-0.01-0.08,0,0c-0.04,0.01-0.03,0.04-0.03,0.08l-0.04,0.01C121.12,12.35,120.99,12.44,121.1,12.46z M121.26,12.75
			c-0.08-0.03-0.09,0.13-0.11,0.02c-0.01-0.04,0.07-0.28-0.04-0.26c0.04,0.26-0.04,0.51,0.11,0.72
			C121.19,13.03,121.21,12.91,121.26,12.75z M121.44,11.21c-0.2,0.19-0.18,0.57-0.21,0.84c-0.09-0.1-0.18,0.07,0,0l0.02,0.11
			C121.36,11.92,121.29,11.47,121.44,11.21z M122.12,8.95c-0.15,0.02-0.08,0.21-0.19,0.22l-0.01-0.08c-0.29,0.08-0.36,1.1-0.58,1.44
			c0.02,0.38-0.31,0.97-0.15,1.22C121.39,10.64,121.74,9.93,122.12,8.95z M121.34,16.91c-0.01-0.08-0.03-0.19-0.14-0.17
			C121.21,16.85,121.3,16.91,121.34,16.91z M121.31,12.32c-0.15,0.02-0.1,0.32,0.02,0.35C121.31,12.55,121.3,12.47,121.31,12.32z
			 M121.52,10.97c-0.11,0.05-0.14,0.1-0.13,0.17C121.47,11.13,121.45,11.02,121.52,10.97z M121.52,9.23l0.01,0.04
			C121.55,9.42,121.37,9.26,121.52,9.23z M121.48,10.21l0.01,0.04L121.48,10.21z M121.86,9.22l0.07-0.05
			C121.97,9.2,121.88,9.33,121.86,9.22z M125.32,15.33c-0.11,0.02-0.09,0.17-0.2,0.19c-0.1-0.18-0.27-0.04-0.46-0.04
			c-0.71,0.11-1.53-0.03-2.02-0.27c0.01,0.81,0.12,1.99,0.76,2.43c0.15,0.01,0.19-0.22,0.3-0.05c-0.16-0.05,0.01,0.08,0,0
			c0.04-0.01,0.06-0.09,0.1-0.09c-0.01,0.19,0.11-0.02,0,0c0.61-0.48,1-1.16,1.3-1.9c0.03,0.42-0.24,0.66-0.34,0.98
			c-0.04,0.01-0.03,0.04-0.03,0.04c-0.03,0.04,0.01,0.04,0,0c0.04-0.01,0.04-0.01,0.03-0.04l0.04-0.01
			C125,16.22,125.16,15.77,125.32,15.33z M125.57,10.34c-0.22-0.16-0.24-0.58-0.53-0.69c0.1,0.14,0.1,0.18,0.05,0.34
			c-0.12-0.25-0.3-0.46-0.49-0.73c0.16,0.05,0.18,0.2,0.27,0.27c0.02-0.35-0.35-0.76-0.58-0.76c0.04,0.23,0.34,0.22,0.31,0.49
			c-0.12-0.06-0.16-0.32-0.41-0.4c-0.39,0.68-0.74,1.35-1,2.16c-0.17,0.88-0.58,2.17,0.06,3.31c0.7,0.09,1.1-0.52,1.59-0.56
			c0.11-0.06,0,0-0.05-0.07c0.17-0.1,0.16-0.22,0.34-0.25c0.01,0.04-0.03,0.08,0.01,0.08c0.06-0.09,0.01-0.19,0.19-0.22
			c0,0-0.04,0.01-0.03,0.08c-0.16-0.05,0.02,0.11,0,0c0.27,0,0.01-0.16,0.19-0.22c0.01,0.04-0.09,0.13,0.02,0.11
			c0.04-0.01,0.03-0.08,0.01-0.16c0.3-0.05-0.01-0.54,0.25-0.62c0.04,0.26-0.08,0.24,0,0.5C126.12,12.42,125.8,11.04,125.57,10.34z
			 M124.17,17.28l-0.07,0.01c0.01,0.04,0.01,0.04,0.01,0.08C124.18,17.35,124.18,17.32,124.17,17.28
			C124.21,17.27,124.16,17.2,124.17,17.28z M124.3,9.03c0.01,0.04-0.03,0.04-0.07,0.05C124.23,9.04,124.27,9.08,124.3,9.03z
			 M124.31,17.18C124.24,17.19,124.32,17.26,124.31,17.18C124.34,17.14,124.3,17.14,124.31,17.18z M124.61,16.67l0.01,0.08
			C124.5,16.92,124.79,16.6,124.61,16.67z M124.96,13.76c0.03-0.04,0.06-0.09,0.05-0.16C124.94,13.61,124.84,13.74,124.96,13.76z
			 M125.37,10.53c-0.14-0.13-0.2-0.32-0.27-0.54C125.27,10.08,125.41,10.25,125.37,10.53z M125.37,10.53
			c0.09,0.1,0.07-0.01,0.12,0.06c0.08,0.53,0.27,1.23,0.34,1.69c-0.01-0.04-0.01-0.08-0.09-0.1c-0.06,0.12,0,0.27,0.13,0.33
			c-0.11,0.02-0.16-0.05-0.2-0.08C125.76,11.82,125.48,10.98,125.37,10.53z M126.04,12.63c-0.04,0.01-0.07,0.01-0.07,0.05
			C126,12.63,126.05,12.66,126.04,12.63z M126,11.86l-0.01-0.04L126,11.86z M127.48,15.26l-0.01,0.16c-0.11,0.02,0.05,0.11,0,0
			l0.04-0.01C127.53,15.37,127.52,15.26,127.48,15.26z M127.65,14.65c0.13-0.14,0.09,0.06,0.06,0.14
			C127.67,14.81,127.7,14.72,127.65,14.65z M127.85,14.01l0.07-0.01c0.01,0.04-0.06,0.09-0.06,0.09
			C127.83,14.09,127.82,14.01,127.85,14.01z M128.87,10.76c0.01,0.08,0,0.23,0.02,0.15C128.89,10.83,129.02,10.74,128.87,10.76z
			 M129.42,10.33c-0.01-0.04-0.08-0.03-0.07,0.01C129.42,10.33,129.42,10.36,129.42,10.33z M130.34,9.64
			C130.27,9.69,130.35,9.68,130.34,9.64C130.38,9.64,130.33,9.61,130.34,9.64z M130.57,9.41c0,0-0.04,0.01-0.07,0.01l0.01,0.08
			c0.04-0.01,0.07-0.01,0.07-0.01L130.57,9.41z M130.71,9.35l-0.04,0.01l-0.03,0.04C130.68,9.4,130.76,9.38,130.71,9.35z
			 M130.91,9.13c0,0-0.04,0.01-0.07,0.01l0.01,0.08c0.04-0.01,0.07-0.01,0.07-0.01L130.91,9.13z M131.12,9.06
			c-0.04,0.01-0.07,0.01-0.07,0.05C131.09,9.06,131.13,9.1,131.12,9.06z M131.26,8.92c-0.07,0.01-0.11,0.02-0.1,0.09
			C131.19,9.01,131.27,9,131.26,8.92z M131.57,8.72c-0.04,0.01-0.07,0.01-0.07,0.05C131.54,8.76,131.57,8.76,131.57,8.72z
			 M132.01,8.61L132,8.57L132.01,8.61z"/>
		<path class="st1" d="M139.65,5.84c-0.07,0.01-0.03-0.19-0.1-0.18c-0.04,0.01,0.03,0.19,0.03,0.23c-0.2-0.08-0.19,0.49-0.19,0.72
			c-0.11,0.06-0.09-0.1-0.1-0.14c-0.07,0.05,0,0.23-0.02,0.35c-0.07,0.01,0.01-0.19-0.1-0.14c-0.07,0.01,0.02,0.15-0.04,0.2
			c-0.07,0.01-0.05-0.11-0.09-0.1c0.01,0.31-0.19,0.26-0.3,0.51c-0.23-0.74-0.38-1.45-0.71-2.09c-0.11,0.06,0.05,0.11,0.04,0.23
			c-0.13-0.1-0.12-0.25-0.18-0.4c-0.22,0.03-0.19,0.22-0.37,0.29c-1.32,1.79-1.93,4.24-2.29,6.61c0.03,0.46-0.2,1.15-0.12,1.68
			c-0.08-0.03-0.05-0.07-0.07-0.18c-0.03,0.31,0,0.46-0.03,0.81c-0.05,0.43,0,0.73-0.04,1.2c0.01,0.08,0.02,0.38-0.01,0.16
			l-0.07-0.45c-0.1,0.56,0.04,1.46-0.18,2.04c-0.14,0.1-0.15-0.01-0.22,0.03c-0.04,0.2,0.01,0.31-0.1,0.56
			c-0.63,0.14-1.93,0.11-2.07-1.07c0.06-0.12,0.01-0.7-0.13-0.87c0.08,0.03-0.02-0.15,0.06-0.12c-0.25-2.63-0.34-4.93-0.49-7.34
			c0.02-0.12-0.16-0.05-0.11-0.21c0.2-0.19,0.48-0.34,0.67-0.57c0.17,0.13,0.2,0.08,0.3-0.05c0.25,0.15,0.43,0.09,0.66,0.09
			c0.28,0.3,0.51,0.61,0.56,1.19c0.43-0.68,0.5-1.7,1-2.39c0.01,0.08-0.16,0.18-0.08,0.24c0.15-0.02,0.13-0.17,0.15-0.25l0.04-0.01
			c-0.01-0.08-0.04-0.03-0.04,0.01c-0.12-0.02,0.03-0.08-0.03-0.23c0.3-0.55,0.68-1.03,1.02-1.55c0.11-0.02-0.05,0.16,0.07,0.18
			c0.07-0.01,0.01-0.19,0-0.23c0.99-1,3.33-0.9,3.69,0.7C139.56,5.47,139.62,5.62,139.65,5.84z M131.89,9.36
			c0.07-0.01,0.04-0.24-0.03-0.23C131.83,9.22,131.91,9.21,131.89,9.36c0.01,0.08,0.02,0.15,0,0.23
			C131.97,9.58,131.98,9.39,131.89,9.36z M131.9,10.64c0.14,0.13-0.02,0.39,0.08,0.49C131.95,10.98,132.13,10.64,131.9,10.64z
			 M131.94,9.9l0.01,0.04C131.79,10.15,132.12,9.83,131.94,9.9z M131.9,9.67c0.01,0.08,0.02,0.15,0.07,0.18
			C131.97,9.82,132.02,9.65,131.9,9.67z M131.93,10.09c0.01,0.08-0.03,0.28,0.08,0.3C131.99,10.2,132.05,10.11,131.93,10.09z
			 M132.04,13.74c-0.13-0.13-0.12-0.29-0.06-0.41C132.06,13.39,132.02,13.59,132.04,13.74z M131.98,10.43
			c0.01,0.08-0.09,0.17,0.02,0.15C131.93,10.56,132.07,10.49,131.98,10.43z M131.99,11.43c0.01,0.08-0.06,0.09,0,0.23
			C132.1,11.69,132.02,11.43,131.99,11.43z M131.97,14.29c0.19-0.03,0.02,0.15,0.08,0.26C131.97,14.49,132.05,14.32,131.97,14.29z
			 M132,11.78c0.06,0.15,0,0.23,0.1,0.37C132.08,12.04,132.11,11.76,132,11.78z M132.05,15.02c0.01-0.19-0.04-0.23-0.02-0.35
			c0.08,0.03,0.08,0.26,0.05,0.3l0.05,0.3C132.05,15.25,132.09,15.05,132.05,15.02z M132.19,13.26c-0.01-0.08-0.02-0.11-0.09-0.1
			C132.11,13.19,132.12,13.27,132.19,13.26z M132.12,13.5c0.02,0.11-0.01,0.16,0,0.27C132.2,13.76,132.22,13.41,132.12,13.5z
			 M132.22,13.95c-0.04,0.01-0.07,0.01-0.07,0.05C132.19,13.99,132.23,13.98,132.22,13.95z M132.17,14.11
			c0.03,0.19-0.07,0.55,0.11,0.68C132.2,14.53,132.28,14.29,132.17,14.11z M132.21,16.03c0.02-0.12,0.03,0.23,0.04,0.26
			C132.22,16.38,132.22,16.11,132.21,16.03z M132.34,15.2c-0.01-0.04-0.01-0.08-0.08-0.03c0.04-0.01,0.01,0.08,0.05,0.07
			C132.31,15.21,132.31,15.21,132.34,15.2z M132.36,15.55c-0.01-0.08,0.01-0.19-0.07-0.18c0.05,0.11-0.03,0.28-0.01,0.43
			c0.08,0.03,0.03,0.23,0.12,0.29c0.03-0.04-0.03-0.23-0.06-0.38C132.33,15.63,132.41,15.65,132.36,15.55z M132.35,16.24l0.01,0.08
			C132.48,16.34,132.45,16.15,132.35,16.24z M134.04,8.95c-0.07,0.01-0.11,0.02-0.1,0.09C133.98,9.04,134.05,9.03,134.04,8.95z
			 M134.56,7.37c-0.08-0.03-0.13,0.14-0.02,0.12C134.53,7.45,134.56,7.4,134.56,7.37z M134.74,6.84c-0.07,0.01-0.06,0.09-0.09,0.13
			C134.76,6.95,134.71,6.88,134.74,6.84z M135.6,5.24C135.57,5.32,135.61,5.31,135.6,5.24C135.63,5.23,135.59,5.2,135.6,5.24z"/>
		<path class="st1" d="M153.34,5.73c-0.02,0.12,0,0.23-0.06,0.32c-0.07,0.05-0.06,0.09-0.06,0.12c0.07-0.01,0.07-0.05,0.06-0.12
			c0.16,0.05-0.03,0.28-0.06,0.36c0,0,0.01,0.04,0.04-0.01c0.01,0.04-0.03,0.04-0.07,0.05c0.13,0.37-0.13,0.64-0.16,0.91
			c-0.01,0.89-0.76,1.47-0.89,2.38c-0.08-0.03-0.01,0.19-0.18,0.07c0.11,0.25-0.1,0.32-0.07,0.55c-0.89,1.61-1.76,3.17-2.79,4.6
			c-0.04,0.01-0.04,0.01-0.03,0.08c-0.07,0.01-0.07,0.01-0.11,0.05c0.05,0.07,0.11-0.05,0.11-0.05c0.04-0.01,0.03-0.08,0.03-0.08
			s0.07-0.01,0.09,0.06c-1.05,1.36-1.97,2.74-4.15,3.23c-0.22,0.03-0.38,0.02-0.6,0.05c-0.2-0.05-0.32-0.1-0.47-0.08
			c-0.21-0.12-0.48-0.16-0.79-0.19c-0.39-0.29-0.84-0.53-1.2-0.89c-0.36-0.33-0.71-0.66-1-1.04c-1.25-1.66-1-4.02-0.61-5.93
			c0.08-0.24,0.26-0.54,0.3-0.78c0.3-1.28,0.75-2.32,1.19-3.39c0.04-0.01,0.05,0.07,0.05,0.11c0.01-0.16,0.02-0.39,0.18-0.57
			c0.01,0.08,0.05,0.07,0.09,0.06c-0.01-0.04-0.04-0.03-0.09-0.06c0.53-1.24,1.28-2.28,2.23-3.28c0.24,0.08,0.46,0.04,0.66,0.09
			c1.23-0.19,2.47-0.04,2.76,1.35c0,0.23,0,0.46-0.08,0.71l-0.02-0.15c-0.04,0.01-0.02,0.12-0.01,0.16c-0.03,0.04,0.01,0.04,0,0
			l0.04-0.01c-0.62,2.64-2.05,4.68-3.63,6.59c-0.11,0.02-0.1,0.09-0.15,0.02c-0.38,0.48-0.86,0.83-1.42,1.15
			c-0.33,1.33-0.09,3.84,0.92,4.72c1.82-0.32,2.7-1.73,3.75-2.82c0.17-0.1,0.23-0.46,0.47-0.42c0.06-0.36,0.32-0.4,0.43-0.68
			c0.04-0.01,0.07-0.01,0.04,0.03c0.47-0.88,1.17-1.53,1.65-2.38c0.04,0.03,0.04-0.01,0.04-0.01c0.23-0.27,0.37-0.56,0.55-0.86
			c0.01,0.04,0.04-0.01,0,0c0.09-0.13,0.06-0.32,0.19-0.22c0.08-0.24,0.18-0.53,0.4-0.64c0.05-0.16,0.11-0.52,0.3-0.51
			c-0.02-0.35,0.5-0.7,0.54-1.17c0.1-0.09,0.04,0.03,0.19-0.03c-0.05-0.3,0.21-0.61,0.38-0.75c0.08-0.48,0.38-0.72,0.55-1.13
			c0.17-0.1,0.25-0.35,0.54-0.2c-0.08,0.24-0.05,0.39-0.15,0.72C153.29,5.89,153.26,5.7,153.34,5.73z M141.24,7.99
			c0.01,0.04-0.03,0.04-0.06,0.09c-0.35,1.41-1.01,2.82-0.95,4.43C140.35,10.87,140.89,9.4,141.24,7.99z M141.66,7
			c0.11-0.02,0.16-0.18,0.08-0.21C141.76,6.91,141.65,6.93,141.66,7C141.63,7.04,141.7,7.03,141.66,7z M141.78,6.29
			C141.92,6.26,141.72,6.14,141.78,6.29C141.74,6.29,141.78,6.32,141.78,6.29z M141.81,6.75c0.01-0.19,0.15-0.25,0.16-0.45
			c0.04,0.03,0.04-0.01,0.04-0.01c0.04-0.01,0.03-0.04,0.03-0.08c0.07-0.01,0.16-0.22,0.08-0.24c0.01,0.08-0.09,0.13-0.08,0.24
			C141.99,6.21,142,6.25,142,6.29l-0.04,0.01C141.82,6.36,141.76,6.68,141.81,6.75z M142.26,5.75l0.04-0.01
			c0.04-0.01,0.03-0.08-0.01-0.08C142.29,5.7,142.26,5.71,142.26,5.75C142.19,5.8,142.27,5.79,142.26,5.75z M142.34,5.5
			C142.45,5.45,142.33,5.47,142.34,5.5C142.27,5.52,142.4,5.65,142.34,5.5z M142.7,4.91c0.04-0.01,0.03-0.08,0.03-0.08
			c0.07-0.01,0.07-0.01,0.07-0.05c-0.07,0.01-0.07,0.01-0.07,0.05C142.69,4.83,142.69,4.83,142.7,4.91
			C142.63,4.92,142.76,5.01,142.7,4.91z M142.76,10.15c1.36-1.52,2.25-3.44,3.13-5.35c-0.02-0.35,0.17-0.61,0.18-1.07
			c-0.1-0.14-0.05-0.34-0.18-0.4c-0.85,0.63-1.31,1.63-1.86,2.53C143.67,7.23,143.05,8.6,142.76,10.15z M142.79,4.74
			c0.07-0.01,0.15-0.02,0.09-0.17c0.11-0.02,0.1-0.09,0.13-0.14c-0.11,0.02-0.1,0.09-0.13,0.14l-0.04,0.01
			C142.86,4.69,142.78,4.66,142.79,4.74z M143.06,4.27C143.24,4.21,143.03,4.08,143.06,4.27C142.99,4.32,143.07,4.31,143.06,4.27z
			 M147.53,4.85c-0.05-0.11,0.08-0.24-0.05-0.3C147.5,4.67,147.41,4.8,147.53,4.85z M148.75,12.23c0,0-0.07,0.01-0.06,0.09
			C148.69,12.32,148.76,12.31,148.75,12.23z M149.76,10.61l-0.04,0.01C149.71,10.58,149.75,10.57,149.76,10.61z M150.8,9.21
			c-0.07,0.01-0.07,0.05-0.07,0.05c-0.03,0.04,0.01,0.04,0,0C150.8,9.25,150.8,9.25,150.8,9.21z M152.4,8.46l-0.01-0.04L152.4,8.46z
			 M152.8,7.9C152.77,7.9,152.81,7.97,152.8,7.9C152.87,7.85,152.8,7.86,152.8,7.9z"/>
		<path class="st1" d="M152.42,6.88c0.02-0.12,0.06,0.15,0.07,0.22C152.43,7.19,152.42,6.92,152.42,6.88z M152.53,7.36
			c-0.07,0.05-0.05-0.11-0.07-0.18C152.5,7.21,152.52,7.32,152.53,7.36z M161.13,1.16c-0.18,0.3-0.14,0.83-0.31,1.21
			c-0.14,0.06-0.02-0.11-0.09-0.1c-0.11,0.02-0.06,0.12-0.05,0.16c-0.04,0.01-0.04-0.03-0.05-0.07c-0.07,0.01-0.01,0.16-0.04,0.24
			c-0.04,0.01-0.05-0.07-0.05-0.11c-0.07,0.05-0.04,0.2-0.11,0.25c-0.04-0.03-0.03-0.23-0.07-0.22c-0.09,0.17-0.13,0.17-0.19,0.26
			c-0.04,0.01-0.04-0.03-0.05-0.11c-0.11,0.02-0.05,0.16-0.08,0.24c-0.09-0.1-0.25-0.15-0.25,0.08c-0.13-0.37-0.03-0.69-0.13-1.1
			c-1.91,1.42-3.38,3.23-4.65,5.12c-0.08,0.44-0.26,0.77-0.43,1.19c0.07,0.18,0.04,0.26-0.01,0.43c0.38,0.21,1.07,0.3,1.56,0.22
			c2,0.15,3.81,0.49,5.12,1.56c0.29,0.38,0.67,0.63,0.6,1.18c-0.07,1.05-1.15,2.15-2,2.59c-0.7,0.61-1.64,0.99-2.74,1.24
			c-0.13-0.1-0.28-0.07-0.5-0.04c-1.15-0.05-1.75-0.96-2.5-1.66c0.06-0.12-0.13-0.13-0.23-0.27c0.06-0.09,0.19,0.01,0.23,0.04
			c0.02-0.12,0.1-0.32,0.02-0.39c0.49-0.77,1.06-1.52,1.89-2.03c0.02,0.11,0.06,0.14,0.1,0.18c0.02,0.15-0.09,0.17-0.19,0.22
			c0.09,0.06,0.14-0.06,0.19,0.01c0.02,0.15-0.09,0.17-0.15,0.25l-0.04,0.01c0.01,0.04,0.04,0.03,0.04-0.01
			c0.15-0.02,0.14-0.1,0.21-0.11c-0.11,0.29-0.46,0.46-0.59,0.86c-0.03,0.04,0.01,0.04,0,0c0.11-0.05,0.16-0.18,0.31-0.2
			c-0.09,0.13-0.15,0.25-0.29,0.35c0.13,0.1,0.05,0.07,0.03,0.23c-0.04,0.01-0.04,0.01-0.03,0.04c0.01,0.04,0.04-0.01,0.03-0.04
			c0.12,0.06-0.21,0.38-0.17,0.61c0.14-0.1,0.09,0.33,0.26,0.46c1.16-0.1,1.88-0.91,2.45-1.15c0.07-0.01,0.11-0.02,0.11-0.06
			c0.47-0.42,0.88-0.95,1.25-1.51c0.09,0.1,0.07-0.01,0,0c0.08-0.21,0.29-0.12,0.24-0.39c0.04-0.01,0.03-0.08,0.02-0.12
			c0.04-0.01-0.01-0.04,0,0c-0.04,0.01-0.03,0.04-0.02,0.12c-0.18,0.07,0.01-0.16,0-0.23c-0.02-0.11-0.19,0.03-0.27-0.04
			c-1.54-0.34-3.44-0.08-4.83-0.68c-0.42-0.24-0.77-0.58-1.12-0.87c-0.23-0.5-0.71-0.89-0.89-1.33c-0.12-0.02,0.03-0.04,0.03-0.08
			c-0.04-0.03-0.11,0.02-0.14-0.13c-0.01-0.04-0.01-0.04,0.07-0.01c-0.21-0.89,0.19-1.23,0.31-1.9c0.34-0.28,0.34-0.79,0.75-1.04
			c0.02,0.11-0.06,0.09-0.04,0.2c0.14-0.06,0.17-0.14,0.19-0.26c0.09,0.1,0.06-0.12,0.13-0.14c0.11-0.02,0.09-0.17,0.12-0.21
			c0.07-0.01,0.07-0.05,0.07-0.05c0.04-0.01,0.06-0.09,0.06-0.12c-0.03,0.04-0.07,0.05-0.06,0.12c-0.07,0.01-0.07,0.01-0.07,0.05
			c-0.11,0.02-0.06,0.09-0.12,0.21c-0.07,0.01-0.09-0.06-0.09-0.06c0.55-0.86,1.27-1.63,2.03-2.4c0.03-0.04,0.03-0.08,0.01-0.16
			c0.29-0.12,0.44-0.38,0.64-0.52c0.11-0.02,0.05,0.11,0.07,0.18c0.09-0.4,0.63-0.87,1.1-0.98c0.03,0.19-0.25,0.08-0.23,0.23
			c0.12,0.02,0.26-0.04,0.35-0.21c-0.02-0.11-0.27,0-0.3-0.19c-0.02-0.11,0.13,0.1,0.2,0.05c0.07-0.01-0.05-0.11-0.03-0.19
			c0.04,0.03,0.28,0.07,0.3-0.05C158.96,0.23,160.79-0.29,161.13,1.16z M153.13,5.61C153.1,5.65,153.14,5.65,153.13,5.61
			C153.17,5.6,153.12,5.53,153.13,5.61z M153.23,5.52c-0.09-0.06,0.13-0.14,0.01-0.16C153.21,5.4,153.08,5.54,153.23,5.52z
			 M153.36,5.57c-0.04,0.01-0.03,0.04-0.03,0.04c-0.04,0.01-0.03,0.04-0.03,0.08c-0.15,0.02,0.02,0.15,0,0
			c0.04-0.01,0.03-0.04,0.03-0.08C153.36,5.61,153.36,5.61,153.36,5.57C153.39,5.57,153.34,5.5,153.36,5.57z M153.48,5.36
			c-0.11,0.02-0.1,0.09-0.13,0.14C153.49,5.48,153.44,5.41,153.48,5.36z M153.69,4.52c-0.01-0.08,0.05-0.16,0.16-0.18
			c0.01,0.04,0.01,0.08-0.02,0.12C153.75,4.43,153.76,4.51,153.69,4.52z M154.69,3.63c-0.29,0.32-0.61,0.71-0.82,1.09
			c-0.15,0.02,0.02,0.15,0,0C154.2,4.36,154.45,4.01,154.69,3.63z M154.05,13.23c-0.04,0.01-0.01-0.04-0.05-0.07
			c0.07-0.01,0.07-0.01,0.08,0.03C154.04,13.19,154.05,13.23,154.05,13.23z M154.66,3.4c-0.04-0.03-0.12-0.02-0.11,0.06
			C154.64,3.52,154.66,3.44,154.66,3.4z M154.73,3.35c-0.01-0.08,0.15-0.02,0.09-0.17c0.15-0.02-0.02-0.11,0,0
			C154.78,3.19,154.6,3.29,154.73,3.35z M154.98,3.27c-0.03,0.08-0.13,0.14-0.21,0.15c0.01,0.08,0.02,0.11-0.01,0.16
			C154.83,3.53,155.03,3.34,154.98,3.27z M154.8,11.95l0.04-0.01C154.84,11.95,154.84,11.98,154.8,11.95z M154.98,3.01
			C155.01,3,155.01,3,155,2.92c0.11-0.02,0.15-0.02,0.14-0.1c-0.11,0.02-0.11,0.06-0.14,0.1C155,2.92,154.96,2.93,154.98,3.01z
			 M155.21,3.05l-0.03,0.04c-0.11,0.02-0.13,0.14-0.16,0.18c0.15-0.02,0.13-0.14,0.16-0.18C155.22,3.08,155.22,3.08,155.21,3.05
			C155.25,3.04,155.2,3.01,155.21,3.05z M155.19,2.66c0.01,0.08-0.02,0.12,0.02,0.15C155.21,2.78,155.24,2.73,155.19,2.66z
			 M155.63,2.56c-0.17,0.14-0.37,0.29-0.28,0.43C155.4,2.79,155.58,2.76,155.63,2.56C155.78,2.53,155.61,2.44,155.63,2.56z
			 M155.33,2.6c0.07-0.01,0.24-0.15,0.08-0.21C155.4,2.52,155.32,2.53,155.33,2.6z M155.36,11.4c0.01,0.04-0.03,0.04-0.03,0.04
			C155.33,11.41,155.36,11.4,155.36,11.4z M155.53,13.69c-0.03,0.04-0.06,0.12-0.05,0.16C155.55,13.84,155.57,13.69,155.53,13.69z
			 M155.69,2.2c-0.11,0.02-0.17,0.14-0.09,0.17C155.55,2.3,155.74,2.31,155.69,2.2z M155.77,11.07c-0.03,0.04-0.01,0.16-0.16,0.18
			C155.63,11.13,155.69,11.08,155.77,11.07z M155.86,2.29c-0.04,0.01-0.07,0.01-0.07,0.05C155.82,2.33,155.86,2.33,155.86,2.29z
			 M156.34,1.52c0,0,0.01,0.04-0.04,0.01l0.02,0.11c0.04-0.01,0.04-0.01,0.07-0.01C156.43,1.54,156.42,1.51,156.34,1.52z
			 M156.41,1.7c-0.03,0.04-0.11,0.05-0.09,0.17C156.4,1.86,156.42,1.78,156.41,1.7z M156.44,13.67c-0.01-0.08,0.03-0.08,0.03-0.08
			C156.48,13.66,156.44,13.67,156.44,13.67z M156.59,1.64c-0.07,0.01-0.15,0.02-0.14,0.06C156.56,1.68,156.56,1.68,156.59,1.64z
			 M156.62,1.55l-0.01-0.04L156.62,1.55z M156.92,1.31c-0.14,0.06-0.17,0.1-0.21,0.15C156.83,1.48,156.86,1.4,156.92,1.31z
			 M156.72,1.27c0.11-0.05,0.21-0.15,0.27-0.2C156.95,1,156.95,1,156.91,1.01c-0.01-0.04-0.04,0.01,0,0
			C156.89,1.13,156.74,1.15,156.72,1.27z M157.05,1.18c-0.04,0.01-0.07,0.01-0.07,0.05c-0.15,0.02,0.03,0.19,0,0
			C157.07,1.29,157.13,1.2,157.05,1.18z M157.08,13.38c0.01,0.04-0.07,0.05-0.11,0.05C157,13.39,157.04,13.38,157.08,13.38z
			 M157.02,0.99c0.14-0.06,0.29-0.12,0.3-0.28C157.19,0.81,157.08,0.86,157.02,0.99z M157.23,1.07c0.04-0.01,0.18-0.07,0.09-0.13
			C157.33,1.02,157.17,0.97,157.23,1.07z M157.43,1.12c0,0-0.04,0.01-0.03,0.04c-0.11,0.02-0.11,0.02-0.14,0.1
			c0.11-0.02,0.15-0.02,0.14-0.1C157.43,1.16,157.43,1.12,157.43,1.12C157.49,1.07,157.42,1.08,157.43,1.12z M157.37,0.78l0.04-0.01
			c-0.01-0.08,0.03-0.08,0.02-0.12c-0.04,0.01-0.04-0.03-0.08-0.03L157.37,0.78z M157.69,0.89c-0.07,0.01-0.07,0.01-0.1,0.09
			c-0.03,0.04,0.04,0.03,0,0C157.67,1,157.71,0.96,157.69,0.89z M157.86,13.02l-0.04,0.01l0.01,0.08l0.04-0.01L157.86,13.02z
			 M159.77,1.72c-0.09,0.17-0.02,0.62,0.14,0.67C159.87,2.17,159.86,1.86,159.77,1.72z M159.94,2.58c-0.01-0.08-0.05-0.07-0.09-0.1
			C159.89,2.55,159.86,2.6,159.94,2.58z"/>
	</g>
</g>
</svg>
