<?xml version="1.0" encoding="utf-8"?>
<!-- Generator: Adobe Illustrator 23.0.2, SVG Export Plug-In . SVG Version: 6.00 Build 0)  -->
<svg version="1.1" id="Layer_1" xmlns="http://www.w3.org/2000/svg" xmlns:xlink="http://www.w3.org/1999/xlink" x="0px" y="0px"
	 viewBox="0 0 22.57 19" style="enable-background:new 0 0 22.57 19;" xml:space="preserve">
<style type="text/css">
	.st0{fill:#211E1F;}
</style>
<g>
	<path class="st0" d="M13.01,19c-0.26,0-0.51-0.1-0.71-0.29c-0.39-0.39-0.39-1.02,0-1.41l6.79-6.79H1c-0.55,0-1-0.45-1-1s0.45-1,1-1
		h18.17l-6.75-6.8c-0.39-0.39-0.39-1.02,0-1.41c0.39-0.39,1.02-0.39,1.41,0l8.45,8.45c0.19,0.19,0.29,0.44,0.29,0.71
		c0,0.01,0,0.02,0,0.03c0,0.14-0.02,0.28-0.08,0.41c-0.09,0.21-0.25,0.38-0.44,0.49l-8.33,8.33C13.52,18.91,13.27,19,13.01,19z"/>
</g>
</svg>
