<?xml version="1.0" encoding="utf-8"?>
<!-- Generator: Adobe Illustrator 23.0.2, SVG Export Plug-In . SVG Version: 6.00 Build 0)  -->
<svg version="1.1" id="Layer_1" xmlns="http://www.w3.org/2000/svg" xmlns:xlink="http://www.w3.org/1999/xlink" x="0px" y="0px"
	 viewBox="0 0 22.57 19" style="enable-background:new 0 0 22.57 19;" xml:space="preserve">
<style type="text/css">
	.st0{fill:#211E1F;}
</style>
<g>
	<path class="st0" d="M9.56,19c0.26,0,0.51-0.1,0.71-0.29c0.39-0.39,0.39-1.02,0-1.41L3.47,10.5h18.1c0.55,0,1-0.45,1-1s-0.45-1-1-1
		H3.4l6.75-6.8c0.39-0.39,0.39-1.02,0-1.41c-0.39-0.39-1.02-0.39-1.41,0L0.29,8.74C0.11,8.93,0,9.18,0,9.45c0,0.01,0,0.02,0,0.03
		c0,0.14,0.02,0.28,0.08,0.41c0.09,0.21,0.25,0.38,0.44,0.49l8.33,8.33C9.05,18.91,9.3,19,9.56,19z"/>
</g>
</svg>
