<?xml version="1.0" encoding="utf-8"?>
<!-- Generator: Adobe Illustrator 24.0.0, SVG Export Plug-In . SVG Version: 6.00 Build 0)  -->
<svg version="1.1" id="Layer_1" xmlns="http://www.w3.org/2000/svg" xmlns:xlink="http://www.w3.org/1999/xlink" x="0px" y="0px"
	 viewBox="0 0 108 108" style="enable-background:new 0 0 108 108;" xml:space="preserve">
<style type="text/css">
	.st0{fill:#FFFFFF;}
	.st1{fill:#E90D8C;}
	.st2{fill:none;}
</style>
<g>
	<circle class="st0" cx="54" cy="54" r="54"/>
	<g>
		<g>
			<g>
				<path class="st1" d="M89.4,48.4c-2.6-1.03-4.8-3.91-5.1-7.73c-0.06,0.1-0.51-0.94-0.14-1.12c-0.55-0.51-0.56-1.75-0.53-2.26
					c-0.49-1.78-0.45-4.36-0.85-6.16c-0.02-0.08,0.04-0.18,0.27-0.24c-0.22-0.19-0.35-0.07-0.34-0.32c0.08-0.02,0.06-0.1,0.21-0.14
					c-0.48-0.86-0.32-2.07-0.43-2.79c0.02,0.08,0.02,0.08,0.04,0.16c0.09-0.27-0.31-0.83,0.01-1.17c-0.29-0.75-0.49-2.1-0.3-2.91
					c-0.44-1.62-0.37-3.47-0.6-5.23c-0.04-0.15-0.01-0.33,0.19-0.22c-0.26-0.34-0.31-0.83-0.18-0.95c-0.06,0.1-0.34-0.32,0.07-0.35
					c-0.4-0.55,0.02-0.83-0.3-1.08c0.08-0.02,0.16-0.04,0.23-0.06c-0.16-0.29-0.36-0.4-0.19-0.7c-0.34-0.32-0.28-1.33-0.74-1.79
					c0.65-0.34,1.3-1.02,2.2-1.35c0.24,0.27,0.5-0.3,0.99-0.02c-0.03-0.41-0.34-0.32-0.25-0.6c0.23-0.06,0.3,0.5,0.69,0.39
					c0.28-0.49,0.56-0.07,1.1-0.22c1.1,0.69,1.62,2.29,2.14,3.89c-0.06,0.1-0.25,0.32-0.36,0.51c0.35,1.56,0.49,3.02,0.53,4.67
					c0.47,5.68,0.79,11.4,1.51,17.34c0.67,3.05,1.26,7.04,3.22,8.74c0.13,0.46,0.09,0.64,0.33,0.91c-0.21,0.14-0.22-0.19-0.45-0.13
					c-0.08,0.02-0.01,0.25,0.01,0.33C91.72,47.76,90.59,48.82,89.4,48.4C89.38,48.32,89.38,48.32,89.4,48.4z M81.07,13.67
					 M81.7,15.07 M81.71,17.56 M81.76,18.63 M81.8,16.37 M81.91,16.76C82.14,16.7,81.75,16.47,81.91,16.76
					C81.76,17.13,82.18,17.43,81.91,16.76z M81.92,17.42c0.11,0.39-0.1,0.86,0.22,1.1C82.06,18.21,82.16,17.69,81.92,17.42z
					 M82.03,18.72 M82.07,19.79 M82.07,22.52 M82.09,18.95 M82.12,21.76 M82.19,20.5 M82.2,21.16c0.2,0.11-0.15,0.37,0.13,0.46
					C82.26,21.39,82.43,21.1,82.2,21.16z M82.25,24.97 M82.36,24.19C82.5,24.07,82.18,23.82,82.36,24.19
					C82.08,24.35,82.47,24.57,82.36,24.19z M82.27,21.72c0.11,0.39,0.09,0.64,0.1,0.97C82.58,22.55,82.58,21.64,82.27,21.72z
					 M82.41,22.85c0.14,0.21-0.13,0.45,0.13,0.46C82.6,23.21,82.57,22.8,82.41,22.85z M82.49,24.65c0.18,0.04,0.22-0.39,0.01-0.25
					c0,0,0,0-0.08,0.02C82.47,24.57,82.47,24.57,82.49,24.65z M82.57,23.72c0.04,0.15-0.2,0.47,0.13,0.46
					C82.67,24.1,82.74,23.75,82.57,23.72z M82.58,26.78c0.06,0.23,0.15,0.54,0.3,0.5c0.09-0.27-0.24-0.27-0.15-0.54l0.16-0.04
					c-0.15-0.54-0.15-1.45-0.35-1.9c0.07,0.56,0.01,1.24,0.2,1.94C82.73,26.74,82.65,26.76,82.58,26.78z M82.77,27.48
					c-0.04-0.15-0.04-0.15-0.06-0.23c-0.08,0.02-0.08,0.02-0.15,0.04c0.02,0.08,0.02,0.08,0.06,0.23
					C82.69,27.5,82.69,27.5,82.77,27.48z M83.11,29.04c-0.13-0.46-0.06-1.14-0.25-1.51c-0.09,0.27,0.28,1.33-0.13,1.03
					C82.77,28.72,82.8,29.13,83.11,29.04z M82.8,29.13 M83.13,30.03c-0.04-0.15,0.08-0.6-0.21-0.77c-0.09,0.27,0.34,0.32-0.05,0.43
					C82.86,29.94,83.05,29.72,83.13,30.03C82.9,30.1,83.22,30.34,83.13,30.03z M83.25,31.66c-0.15,0.04-0.32-0.25-0.23,0.06
					c0.47,0.2-0.04,0.76,0.18,0.95c0.04-0.18,0.04-0.18,0.29-0.16c-0.28-0.42,0.06-1.59-0.45-1.95c0.18,0.37,0.05,0.48-0.06,0.68
					C83.16,31.35,83.26,31.41,83.25,31.66z M83.18,32.92 M83.32,11.89l-0.04-0.15l0.06-0.1C83.41,11.62,83.51,12.01,83.32,11.89z
					 M83.35,32.96 M83.4,33.44 M83.45,35.42c0.29-0.16,0.18,0.36,0.47,0.2c-0.13-0.46-0.16-1.2-0.44-1.62
					C83.37,34.53,83.79,35.16,83.45,35.42C83.33,35.62,83.65,35.87,83.45,35.42z M83.54,30.92 M83.65,35.87
					c0.08,0.31,0.08,0.89,0.25,0.93C83.9,36.46,84.04,36.09,83.65,35.87z M83.67,36.86 M84.12,37.89c0.04-0.18-0.3-0.5-0.01-0.33
					c-0.04-0.15-0.03-0.41-0.18-0.36c0.06,0.23-0.29,0.16-0.2,0.47C84.04,37.58,83.85,38.13,84.12,37.89z M84.01,38.09l-0.04-0.15
					c-0.15,0.04-0.15,0.04-0.23,0.06l0.04,0.15C83.85,38.13,83.85,38.13,84.01,38.09z M83.95,38.77 M84.02,35.1 M84.03,38.17
					c0.02,0.08-0.05,0.43,0.18,0.37C84.15,38.3,84.21,38.2,84.03,38.17z M84.2,38.79c0.16,0.29-0.07,0.35-0.01,0.58
					C84.5,39.28,84.37,38.82,84.2,38.79z M84.23,39.52c0.19,0.7,0.41,0.88,0.25,0.01C84.47,39.46,84.39,39.48,84.23,39.52z
					 M84.76,41.45c0.05-0.43-0.13-0.46-0.23-0.85c0.29-0.16-0.2-0.44,0,0C84.47,40.7,84.66,41.4,84.76,41.45z M84.73,41.63
					c-0.06,0.1,0.06,0.23,0.11,0.39C85.09,42.94,85.1,41.78,84.73,41.63z M84.98,42.55c0.23,0.85,0.56,1.75,1.02,2.21
					C85.65,44.11,85.34,42.95,84.98,42.55z M86.06,45 M93.87,55.64c0.32,0.25,0.86,0.43,1.24,0.91c0.17-0.29-0.32-0.25-0.2-0.44
					c0.74-0.04,0.39,1.14,0.66,1.81c-0.24,0.65-0.3,1.33-0.52,2.05c-0.37,0.18-0.46,0.46-0.8,0.72c-2.22,0.69-3.22-0.86-3.85-2.85
					c0.62-0.17,0.62-0.75,0.76-1.45c0.66-0.01,2.1-0.82,2.79-0.43C94.01,55.85,93.93,55.87,93.87,55.64z M90.58,57.28
					c-0.08,0.02-0.02-0.08-0.06-0.23C90.79,57.14,90.56,57.21,90.58,57.28z M90.53,58.29 M92.76,58.26
					c0.04,0.15,0.04,0.15,0.16,0.29C92.86,58.32,92.86,58.32,92.76,58.26z M95.1,56.8c0.18,0.37-0.05,0.43,0.06,0.81
					c-0.15,0.04,0.24,0.27,0,0l0.15-0.04c0.04-0.18-0.05-0.48-0.13-0.79c0.08-0.02-0.02-0.08,0,0C95.1,56.8,95.1,56.8,95.1,56.8z"/>
			</g>
		</g>
		<path class="st1" d="M19.57,56.58c0.02,0.09-0.08,0.03-0.15,0.05C19.38,56.44,19.57,56.58,19.57,56.58z M32.53,63.99
			c0.03-0.62-0.2-1.25-0.27-1.94c0.17-0.36,0.13,0.97,0.35,1.2l0.02,0.09c-0.03,0.22,0.05,0.59,0.15,0.66
			c0.21-0.17,0.05-0.52-0.15-0.66c0.14-0.86-0.34-1.51-0.37-2.41c-0.31,0.1,0.13,0.57-0.06,0.83c-0.4-0.68,0.01-1.43-0.25-2.25
			c-0.8-0.64-0.51-2.67-1.34-3.81c0.04,0.19-0.1,0.64,0.17,0.76c-0.19,0.27-0.37-0.18-0.41-0.37c-1.43,3.22-1.86,7.22-2.7,10.86
			c0.19,0.85,0.05,1.71-0.24,1.91c0.02,0.09,0.28,0.52-0.05,0.52c0.01,4.87-0.82,9.31-0.71,14.25c-0.06,0.12-0.13,0.15-0.07,0.43
			c-0.23,0.08-0.31,0.1-0.27,0.29c-0.52,0.28-0.56,0.09-1.1,0.27c-1.3-0.27-2.28-1.36-3.4-1.9c0.02-1.02-0.32-1.82-0.66-3.33
			c0.48,0.65,0.43,1.58,0.71,2.81c0.24-0.79-0.69-2.71-0.37-3.53c0.09,0.78,0.33,2.22,0.53,2.76c-0.08,0.03,0.04,0.19,0.06,0.28
			c0.15-0.05,0.03-0.21-0.06-0.28c-0.67-3.73-1.02-7.57-1.44-11.69c0.08-0.03,0.25,0.02,0.33-0.01c-0.31-1.01-0.48-2.17-0.15-2.89
			c-0.76-1.57,0.2-3.92-0.73-5.14c0.11-0.24,0.01-0.31,0.16-0.76c0.25,0.02-0.07,0.43,0.1,0.47c0.31-0.1,0.15-0.46,0.1-0.64
			c-0.12-0.16-0.29,0.2-0.38,0.13c0.26-0.7-0.05-1.71,0.03-2.45c0.02,0.09,0.1,0.07,0.25,0.02c-0.02-0.09-0.17-0.04-0.25-0.02
			c0.1-0.65-0.17-1.16,0.01-1.83c-0.12-0.16-0.46,0.15-0.47-0.25c0.78-0.57,1.61-0.54,2.16-1.03c0.08-0.03,0.15-0.05,0.1,0.07
			c0.08-0.03,0.03-0.21-0.01-0.4c0.68,0.08,1.62-0.14,2.3,0.34c0.28,0.51,0.24,1.44,0.55,1.74c0.57-0.8,0.75-2.18,1.23-2.65
			c0.17-1.48,2-2.9,3.47-2.59c3.59-1.31,5.5,1.7,6.75,5.85c0.1,1.18,0.62,3.14,0.92,4.16c0.86,3.87,1.21,9.14,3.01,12.79
			c0.87-0.19,0.84-1.4,1.48-1.51c0.12,0.16-0.07,0.43-0.03,0.62c0.23-0.08,0.19-0.27,0.31-0.1c0.24,0.33-0.11,0.24-0.03,0.62
			c0.31-0.1,0.07-0.43,0.42-0.34c0.2,0.54,0.06,1,0.33,1.11c0.06,0.28-0.49,0.77,0.01,0.81c-0.19,0.27-0.36,0.63-0.52,0.99
			c-0.5-0.03-0.79,0.16-1.56,0.42c-0.45-0.15-0.87-0.21-1.22-0.3c-0.9-0.71-2.06-0.73-2.96-1.44c-0.4-0.68-0.84-1.54-1.25-1.91
			c0.09-0.33-0.23-1.04-0.5-1.15c0.14-0.86-0.41-1.49-0.61-2.74c0.5,0.75,0.48,1.77,0.8,2.47c-0.3-1.73-0.59-3.05-1.1-4.2
			c-0.06,0.12,0.15,0.66,0.21,0.95c-0.24-0.33-0.34-0.8-0.35-1.2c0.08-0.03,0.1,0.07,0.12,0.16c0.14-0.86-0.31-2.13-0.71-3.21
			c-0.01,0.31,0.19,0.85,0.29,1.32c-0.08,0.03-0.08,0.03-0.08,0.03C32.8,65.22,33.02,64.34,32.53,63.99z M19.94,59.7
			c-0.25-0.02-0.1-0.47-0.13-0.57C20.01,59.27,19.9,59.51,19.94,59.7z M19.81,61.37c-0.06-0.28,0.09-0.34,0.05-0.52
			C20.01,60.79,20.12,61.26,19.81,61.37z M19.98,63.24c-0.34-0.39-0.08-1.09-0.18-1.56c0.23-0.08,0.1,0.47,0.2,0.54
			C19.91,62.55,19.97,62.84,19.98,63.24z M19.82,57.31 M19.87,58.3c0.03-0.21,0.01-0.31-0.01-0.4
			C19.92,57.78,20.05,58.34,19.87,58.3z M19.87,60.13 M20,65.16c0.01,0.4,0.13,0.97-0.06,1.24C19.99,65.88,19.73,65.46,20,65.16z
			 M19.88,58.71 M19.98,66.59c-0.08,0.03-0.12-0.16-0.04-0.19C20.11,66.44,20.11,66.44,19.98,66.59z M19.92,60.72 M19.93,64.48
			 M19.93,64.48 M20,67.4c-0.06-0.28-0.01-0.4-0.03-0.5C20.2,66.82,20.15,67.34,20,67.4z M20.24,68.84
			c-0.33,0.01-0.11-0.47-0.24-0.73C20.32,68.1,20.1,68.58,20.24,68.84z M20.34,62.61c-0.08,0.03-0.08,0.03-0.08,0.03
			c0.13,0.57,0.08,1.09-0.01,1.43c-0.43-0.46,0.12-0.95-0.25-1.85C20.23,62.14,20.32,62.52,20.34,62.61z M20.14,69.89
			c-0.08-0.38-0.05-0.59-0.11-0.88C20.22,69.15,20.37,69.81,20.14,69.89z M20.13,65.02c-0.06-0.28-0.08-0.38,0.15-0.45
			C20.34,64.85,20.44,64.91,20.13,65.02z M20.35,67.48c-0.08-0.38-0.2-1.25-0.22-1.75C20.36,66.06,20.49,67.03,20.35,67.48z
			 M20.43,72.32c-0.35-0.09-0.1-1.19-0.3-1.73C20.64,71.04,20.29,71.66,20.43,72.32z M20.16,65.52 M20.17,64.09l0.08-0.03
			C20.41,64.41,20.13,64.3,20.17,64.09z M20.18,57.08 M20.46,62.06c-0.14-0.26,0.13-0.55-0.18-0.45c0.04,0.19-0.03,0.21-0.09,0.33
			C20.27,61.92,20.36,61.99,20.46,62.06z M20.4,68.48c-0.15,0.05-0.08-0.38-0.18-0.45C20.53,67.93,20.51,68.24,20.4,68.48z
			 M20.23,57.67 M20.24,59.19 M20.27,64.56 M20.3,59.48 M20.31,60.28 M20.32,65.15 M20.56,72.89c0.02,0.09,0.02,0.09,0.04,0.19
			c-0.15,0.05-0.15,0.05-0.23,0.08c-0.02-0.09-0.02-0.09-0.04-0.19C20.4,72.94,20.4,72.94,20.56,72.89z M20.49,69.26l-0.08,0.03
			c-0.02-0.09-0.08-0.38-0.01-0.4C20.45,69.07,20.53,69.04,20.49,69.26z M20.49,70.37c-0.01-0.4-0.11-0.88-0.08-1.09
			C20.45,69.78,20.72,70.3,20.49,70.37z M20.41,68.88 M20.64,73.27c-0.15,0.05-0.23,0.08-0.23,0.08
			C20.49,73.32,20.64,73.27,20.64,73.27z M20.48,74.03c-0.06-0.28-0.08-0.38-0.03-0.5C20.53,73.51,20.81,74.03,20.48,74.03z
			 M20.47,70.99 M20.66,71.84c-0.25-0.02-0.06-0.28-0.13-0.57C20.84,71.17,20.54,71.68,20.66,71.84z M20.76,74.55
			c-0.08,0.03-0.08,0.03-0.06,0.12c-0.1-0.07-0.12-0.16-0.16-0.35C20.7,74.27,20.74,74.45,20.76,74.55z M20.69,72.75
			c-0.17-0.04-0.1-0.47-0.13-0.57C20.85,71.98,20.63,72.46,20.69,72.75z M20.59,74.91 M20.65,68.09c0.17,0.04,0.24-0.39,0.03-0.21
			c0,0,0,0-0.08,0.03C20.63,68,20.63,68,20.65,68.09z M20.89,73.29c-0.09,1.45,0.46,2.79,0.18,3.8c-0.12-1.28-0.18-2.68-0.43-3.81
			C20.69,72.75,20.82,73.31,20.89,73.29z M20.67,67.47 M20.72,75.48 M20.76,64.5 M20.77,61.96 M20.78,70.18 M20.8,62.46 M20.8,63.57
			 M20.8,76.97c0.33-0.01,0.13,0.57,0.39,0.99l-0.15,0.05C20.9,77.75,21.06,77.39,20.8,76.97z M20.85,76.04 M20.85,76.04
			 M20.9,76.63 M20.94,71.65 M21,70.41c0.08-0.03,0.15-0.05,0.13-0.15C21.05,70.29,20.98,70.31,21,70.41z M21.12,78.39
			c-0.08,0.03-0.16-0.35-0.08-0.38C21.06,78.1,21.08,78.2,21.12,78.39z M21.05,64.71 M21.05,65.82 M21.21,79.17
			c-0.08,0.03-0.06-0.28-0.16-0.35C21.36,78.71,21.15,78.88,21.21,79.17z M21.06,67.34c0.02,0.1,0.03,0.5,0.18,0.45
			C21.24,67.79,21.34,67.15,21.06,67.34z M21.1,73.11 M21.12,65.39 M21.12,78.39 M21.13,61.73 M21.39,78.5
			c0.01-0.31-0.19-0.85-0.25-1.13C21.29,77.31,21.5,78.26,21.39,78.5z M21.35,73.84 M21.41,76.36 M21.52,72.77
			c0.04,0.19,0.06,0.28-0.07,0.43C21.7,73.22,21.58,72.65,21.52,72.77z M21.48,73.7c0.1,0.07,0.1,0.47,0.29,0.21
			C21.73,73.71,21.71,73.62,21.48,73.7z M21.67,74.55 M21.74,82.65 M21.77,75.73 M21.77,77.97 M21.85,76.11
			c-0.06,0.12,0.01,0.4,0.18,0.45C22.09,76.44,22.01,76.06,21.85,76.11z M22,77.89 M22,82.35 M22.17,81.99 M26.37,55.21 M26.64,54.2
			 M27.94,52.64 M31.11,57.98 M31.38,57.68 M31.48,58.15c-0.08,0.03,0.07,0.69,0.3,0.61C31.59,58.63,31.66,58.2,31.48,58.15z
			 M31.61,60.24 M31.8,59.98c-0.1-0.07-0.17-0.04-0.16-0.35C32.03,59.9,32.16,60.46,31.8,59.98z M31.73,59.29
			c0.13-0.15,0.17,0.04,0.15-0.05C31.87,59.14,31.71,59.19,31.73,59.29z M32.94,63.96c0,0-0.15,0.46,0.08,0.38
			C33.02,64.34,33.09,63.91,32.94,63.96z M33.19,66.21c-0.08,0.03-0.12-0.16-0.04-0.19C33.17,66.11,33.25,66.09,33.19,66.21z
			 M33.2,66.61 M33.32,67.18c0.04-0.22,0.01-0.31-0.01-0.4C33.39,66.75,33.5,67.22,33.32,67.18z M33.39,67.46 M33.92,69.11
			c0.02,0.09,0.06,0.28,0.08,0.38c-0.08,0.03-0.08,0.03-0.15,0.05c-0.02-0.09-0.06-0.28-0.08-0.38
			C33.84,69.14,33.84,69.14,33.92,69.11z M34.81,72.36c0.06-0.12,0.17,0.04,0.15-0.05C34.94,72.22,34.79,72.27,34.81,72.36z
			 M35,70.27 M35.07,72.78 M35.25,73.23 M35.33,73.61 M35.47,73.87 M35.69,74.1"/>
		<path class="st1" d="M54.71,41.97 M55.24,45.28 M55.3,42.3 M55.42,44.14c0.1,0.37-0.02,0.99,0.22,1.13
			C55.56,44.99,55.8,44.43,55.42,44.14z M55.89,46.18c-0.03-0.09-0.1-0.37-0.26-0.22c0.14,0.16,0.08,0.27,0.08,0.27
			S55.8,46.21,55.89,46.18z M55.77,47.5c0.27,1.31,0.24,1.91,0.69,3.17C56.29,49.73,56.22,48.07,55.77,47.5z M56.01,46.25
			c0.03,0.09,0.05,0.18,0.05,0.18C56.41,46.63,56.26,46.08,56.01,46.25z M56.19,46.89C56.28,46.87,56.16,46.8,56.19,46.89
			C56.12,47.01,56.21,46.98,56.19,46.89z M56.26,47.86 M56.48,50.76c-0.07,0.12-0.16,0.84,0.21,0.73
			C56.52,51.24,56.72,50.89,56.48,50.76z M56.86,50.36 M56.91,51.23 M57.37,52.19c-0.05-0.18-0.08-0.28-0.1-0.37
			c-0.18,0.05-0.18,0.05-0.28,0.08c0.03,0.09,0.05,0.18,0.1,0.37C57.19,52.24,57.19,52.24,57.37,52.19z M57.18,55.01
			c0.09-0.03,0.18-0.05,0.16-0.14C57.24,54.89,57.24,54.89,57.18,55.01z M57.25,52.82 M57.53,56.29 M57.53,54.52 M57.58,54.7
			 M57.74,57.03c0.05,0.18,0.13,0.46,0.18,0.64C58.13,57.71,57.9,56.88,57.74,57.03z M58.06,58.52c-0.04,0.21,0.33,0.11,0.18-0.05
			C58.19,58.28,58.01,58.33,58.06,58.52z M58.08,56.83c0.09-0.03,0.14,0.16,0.09-0.03C58.17,56.81,58.06,56.74,58.08,56.83z
			 M58.14,58.79c0.03,0.09,0.08,0.28,0.1,0.37C58.45,59.2,58.29,58.65,58.14,58.79z M58.38,59.32 M58.44,59.89 M58.57,60.35
			 M58.63,60.92c0.21,0.04,0.13,0.46,0.18,0.64C59.09,61.49,58.81,60.48,58.63,60.92z M58.8,60.09 M58.79,39.94 M58.95,60.64
			 M59.12,62.67 M59.4,63.67c0.21,0.04,0.08-0.42,0.04-0.21c0,0,0.03,0.09-0.07,0.12L59.4,63.67z M63.29,59.22 M63.29,57.45
			 M63.33,57.24 M63.34,56.55c0.14,0.16,0.05,0.18,0.08,0.27C63.65,56.95,63.52,56.49,63.34,56.55z M63.4,58.9 M63.67,57.74
			l-0.03-0.09l-0.18,0.05l0.03,0.09L63.67,57.74z M63.46,55.92 M63.57,54.9c0.02,0.09-0.02,0.3,0.1,0.37
			C63.64,55.18,63.78,54.94,63.57,54.9z M64.84,43.58c-0.26,0.47,0.35,0.2,0,0.69l-0.02-0.09c-0.34,0.19-0.26,0.47-0.25,0.86
			c-0.09,0.03-0.15,0.53-0.05,0.51c0.07-0.12,0.11-0.33,0.05-0.51c0.27-0.08-0.01-0.39,0.17-0.44c-0.33,2.36-0.26,4.72-0.7,7.01
			c-0.08-0.27,0.01-0.3-0.06-0.58c0.27-0.08-0.19-0.34,0,0l-0.09,0.03c0.05,0.18-0.07,0.81,0.15,0.55c0.09,0.67,0.06,1.27-0.18,1.83
			c-0.1-0.37,0.08-0.42-0.06-0.58c0.09-0.03,0.07-0.12,0.01-0.3c0.18-0.05,0.16-0.14,0.13-0.23c0.07-0.12,0.04-0.21-0.01-0.39
			c-0.09,0.03-0.04,0.21,0.01,0.39c-0.18,0.05-0.16,0.14-0.13,0.23c-0.09,0.03-0.04,0.21-0.01,0.3c0,0,0,0-0.09,0.03
			c0.14,0.16-0.16,0.84,0.15,0.55c0.15,1.24-0.46,2.6-0.13,3.79c0.51-4.88,0.67-9.96,1.71-14.7c-0.38,0.4-0.28,0.77-0.57,1.15
			C65.02,43.53,64.84,43.58,64.84,43.58z M64.05,49.93C63.89,50.07,64.27,50.36,64.05,49.93c0.09-0.03,0.07-0.12,0.07-0.12
			c0.2-0.35,0.12-0.63,0.14-0.93c-0.32,0.29-0.24,0.56-0.14,0.93C64.02,49.83,64.05,49.93,64.05,49.93z M64.26,48.19
			c-0.09,0.03-0.07,0.12-0.01,0.3c-0.09,0.03-0.07,0.12-0.04,0.21c-0.09,0.03,0.03,0.09,0,0c0.09-0.03,0.07-0.12,0.04-0.21
			C64.33,48.46,64.28,48.28,64.26,48.19c0.09-0.02-0.03-0.09-0.05-0.18c0.34-0.19-0.13-0.46,0,0C64.2,48.01,64.23,48.1,64.26,48.19z
			 M64.33,47.38C64.08,47.55,64.54,47.81,64.33,47.38c0.09-0.03,0.07-0.12,0.01-0.3c0.09-0.03,0.2-0.35,0.01-0.3
			c-0.07,0.12-0.04,0.21-0.01,0.3C64.25,47.11,64.3,47.29,64.33,47.38z M64.46,45.76c-0.11,0.33-0.3,0.68-0.04,0.9
			C64.23,46.32,64.72,45.98,64.46,45.76z M64.73,44.6c0.18-0.05,0.13-0.23,0.11-0.33C64.75,44.3,64.68,44.42,64.73,44.6z
			 M64.89,43.76c0,0,0,0-0.02-0.09L64.89,43.76z M69.29,54.19c-0.08-0.27-0.1-0.37-0.04-0.48C69.44,53.65,69.62,54.29,69.29,54.19z
			 M69.95,55.48c-0.2,0.35-0.32-0.8-0.54-1.23C69.83,54.33,69.69,55.26,69.95,55.48z M69.96,55.88 M70.7,57.45
			c-0.13,0.23-0.29-0.32-0.31-0.41C70.47,56.62,70.67,57.36,70.7,57.45z M70.78,57.72c0.05,0.18,0,0-0.18,0.05
			C70.57,57.68,70.75,57.63,70.78,57.72z M71,58.16c-0.09,0.03-0.12-0.07-0.14-0.16C70.94,57.97,70.97,58.06,71,58.16z M70.98,58.46
			 M71.18,58.8 M74.41,31.52 M75.15,34.18 M75.21,32.97 M75.25,34.54 M75.32,36.89 M75.44,36.27 M75.47,35.67 M75.47,35.67
			 M75.48,37.84 M75.49,38.23 M75.55,39.5 M75.51,32.3 M75.58,39.59 M75.97,35.33c-0.16,0.14-0.01-0.39-0.24-0.13
			c0.03,0.09,0.14,0.16,0.17,0.25c-0.09,0.03-0.25,0.17-0.2,0.35c-0.26-0.22,0.07-0.81-0.12-1.15c0,0,0,0,0.09-0.03
			C75.65,34.92,76.12,35.19,75.97,35.33z M75.69,37.19 M75.72,37.97 M75.69,32.25c0.09-0.03,0.12,0.07,0.18-0.05
			C75.83,32.01,75.64,32.06,75.69,32.25z M75.71,32.64 M75.78,36.77 M75.83,40.5 M75.92,54.21 M75.95,54.69 M75.93,39.09
			C75.91,39,75.91,39,75.88,38.91C76.22,38.72,76.35,39.17,75.93,39.09z M75.97,51.92 M76.1,41.81
			C75.98,41.75,76.01,41.84,76.1,41.81c-0.1,0.72,0.28,1.7-0.03,2.38c-0.27-1.31-0.12-2.54-0.06-3.74c0.09-0.03,0.09-0.03,0.09-0.03
			C76.3,40.77,76.27,41.37,76.1,41.81z M76.07,35.7l-0.09,0.03c-0.05-0.18-0.05-0.18-0.08-0.27C75.99,35.42,76.08,35.4,76.07,35.7z
			 M75.91,37.62 M76.05,50.81c0.17,0.25-0.24,0.56,0.06,0.58C76.18,51.27,76.26,50.85,76.05,50.81z M76.2,38.62
			c-0.42-0.08-0.17-0.25-0.25-0.52C76.32,38,76.03,38.38,76.2,38.62z M76.01,39.37c0.14,0.16,0.11,0.76,0.1,1.06
			C75.94,40.18,76,39.67,76.01,39.37z M76.21,50.67c0.07-0.12,0.04-0.21-0.04-0.48c0.28-0.08-0.22-0.43,0,0
			C76.08,50.21,76,50.63,76.21,50.67z M76.27,37.12c-0.39,0.01-0.08,0.42-0.26,0.47C76.4,37.58,76.35,37.4,76.27,37.12z M76.1,49.91
			 M76.39,48.84c0,0,0,0-0.09,0.03c-0.03-0.09-0.05-0.18-0.1-0.37c0.28-0.08,0.04-0.21,0.22-0.26
			C76.56,48.4,76.34,48.66,76.39,48.84z M76.22,41.88c0.38,0.29,0.05,0.87,0.24,1.22l-0.09,0.03
			C76.21,42.57,76.35,42.34,76.22,41.88z M76.34,43.72c0.01-0.3,0.04-0.21-0.06-0.57c0.09-0.03,0.09-0.03,0.09-0.03
			C76.44,43.39,76.5,43.58,76.34,43.72z M76.34,43.72 M76.42,44c0.22,0.43-0.08,1.11,0.07,1.66c0,0,0,0-0.09,0.03
			C76.33,45.11,76.39,44.6,76.42,44z M76.37,33.24 M76.52,35.18 M76.61,36.93 M76.92,37.34l-0.03-0.09
			c-0.18,0.05-0.18,0.05-0.27,0.08l0.02,0.09C76.74,37.39,76.74,37.39,76.92,37.34z M76.77,49.13 M76.71,37.99 M81.02,40.34"/>
		<g>
			<path class="st2" d="M54.72,59.29c-0.04-0.15,0.1-0.19,0.1-0.19C54.86,59.25,54.72,59.29,54.72,59.29z"/>
			<path class="st2" d="M40.4,49.92c-0.04-0.15,0.17-0.22,0.11-0.45C40.66,49.51,40.6,49.86,40.4,49.92z"/>
			<path class="st2" d="M40.83,48.38c0.03,0.4-0.23,0.56-0.2,0.97C40.52,49.22,40.58,48.54,40.83,48.38z"/>
			<path class="st2" d="M40.93,48.18c-0.05-0.23,0.13-0.37,0.1-0.53C41.18,47.69,41.07,48.14,40.93,48.18z"/>
			<path class="st2" d="M40.9,48.35c-0.02-0.07-0.04-0.15,0.03-0.17C40.95,48.26,40.97,48.33,40.9,48.35z"/>
			<path class="st2" d="M38.85,61.76c-0.45-3.35,0.49-6.46,0.87-9.47c0.09-0.09,0.14-0.17,0.14-0.23
				C39.48,55.06,38.73,58.26,38.85,61.76z"/>
			<path class="st2" d="M40.4,49.92C40.49,49.98,40.35,50.02,40.4,49.92L40.4,49.92z"/>
			<path class="st2" d="M40.47,48.4C40.33,48.12,40.75,48.32,40.47,48.4L40.47,48.4z"/>
			<path class="st2" d="M40.47,48.4C40.49,48.48,40.4,48.42,40.47,48.4L40.47,48.4z"/>
			<path class="st2" d="M41.28,47.16C41.3,47.24,41.16,47.28,41.28,47.16L41.28,47.16z"/>
			<path class="st2" d="M42.08,45c0.02,0.08,0.02,0.08-0.12,0.12C41.94,45.05,41.94,45.05,42.08,45z"/>
			<path class="st2" d="M42.06,44.93c-0.04-0.16,0.12-0.12,0.06-0.35l0.07-0.02C42.34,44.84,42.2,44.89,42.06,44.93z"/>
			<path class="st2" d="M47.89,44.3c-1.26,4.2-2.53,8.41-4.78,11.92c0.23-3.31,1.12-6.32,1.52-9.26c0.84-2,1.49-4.19,2.96-5.72
				c0.24,0.09,0.2,0.52,0.41,0.79C48.09,42.99,47.79,43.58,47.89,44.3z"/>
			<path class="st2" d="M42.41,44.24c-0.05,0.1-0.01,0.25-0.22,0.32C42.24,44.46,42.21,44.3,42.41,44.24z"/>
			<path class="st2" d="M41.34,47.14l-0.06,0.02c-0.02-0.08,0.05-0.1,0.03-0.18C41.38,46.96,41.41,47.12,41.34,47.14z"/>
			<path class="st2" d="M42.47,43.89c0,0.01,0,0.01,0,0.02C42.47,43.98,42.37,44,42.47,43.89z"/>
			<path class="st2" d="M42.47,43.89C42.38,43.5,42.8,43.71,42.47,43.89L42.47,43.89z"/>
			<path class="st2" d="M41.37,46.63C41.35,46.56,41.56,46.49,41.37,46.63L41.37,46.63z"/>
			<path class="st2" d="M41.37,46.63C41.51,46.92,41.23,46.68,41.37,46.63L41.37,46.63z"/>
			<path class="st2" d="M41.93,45.3C42.06,45.51,41.79,45.34,41.93,45.3L41.93,45.3z"/>
			<path class="st2" d="M42.06,44.93l0.02,0.08C42.08,45.01,42.08,45.01,42.06,44.93z"/>
			<path class="st2" d="M41.93,45.3c-0.04-0.15-0.04-0.15,0.03-0.18C41.96,45.12,42,45.28,41.93,45.3z"/>
			<path class="st2" d="M40.9,48.35c0,0,0.02,0.08-0.07,0.03C40.83,48.38,40.83,48.38,40.9,48.35z"/>
			<path class="st2" d="M75.97,53.7c0.18-0.05,0.25-0.17,0.22-0.26C76.1,53.47,75.95,53.61,75.97,53.7z"/>
			<path class="st2" d="M76.19,48.5c0.28-0.08,0.04-0.21,0.22-0.26c-0.09-0.67-0.03-1.18-0.1-1.75
				C76.09,47.05,76.29,47.78,76.19,48.5z"/>
			<path class="st2" d="M76.15,49.4c0.11,0.12,0.16-0.14,0.17-0.35c-0.01-0.06-0.01-0.12-0.02-0.19c-0.03-0.09-0.05-0.18-0.1-0.37
				C76.09,48.83,76.26,49.08,76.15,49.4z"/>
			<path class="st2" d="M55.03,41.68c0.05,0.18,0.08,0.28,0.13,0.46C55.25,42.12,55.3,41.61,55.03,41.68z"/>
			<path class="st2" d="M55.42,44.14c0.1,0.37-0.02,0.99,0.22,1.13C55.56,44.99,55.8,44.43,55.42,44.14z"/>
			<path class="st2" d="M61.96,45.37c0.14-0.04,0.12-0.12,0.08-0.27C61.92,45.22,61.94,45.29,61.96,45.37z"/>
			<path class="st2" d="M61.53,49.07C61.65,48.95,61.51,48.99,61.53,49.07L61.53,49.07z"/>
			<path class="st2" d="M55.63,45.96c0.14,0.16,0.08,0.27,0.08,0.27s0.09-0.03,0.18-0.05C55.87,46.09,55.79,45.82,55.63,45.96z"/>
			<path class="st2" d="M76.06,37.08c0.43-1.3-0.17-2.72-0.25-4.08c-0.27,0.08,0.21,0.73-0.24,0.56c0.17,0.25,0.27,0.62,0.1,1.06
				c-0.01,0.3,0.45,0.56,0.3,0.71c-0.16,0.14-0.01-0.39-0.24-0.13c0.03,0.09,0.14,0.16,0.17,0.25c0.09-0.03,0.18-0.05,0.17,0.25
				l-0.09,0.03C76.16,36.36,75.91,36.53,76.06,37.08z"/>
			<path class="st2" d="M76.1,41.81C75.98,41.75,76.01,41.84,76.1,41.81L76.1,41.81z"/>
			<path class="st2" d="M61.53,49.07C61.46,49.09,61.57,49.22,61.53,49.07L61.53,49.07z"/>
			<path class="st2" d="M56,64.87c0,0-0.08,0.28-0.19,0.14C55.87,64.92,55.87,64.92,56,64.87z"/>
			<path class="st2" d="M51.14,43.05c-0.07,0.03-0.07,0.03-0.07,0.03c-0.02-0.08-0.08-0.31-0.01-0.33
				C51.08,42.82,51.12,42.98,51.14,43.05z"/>
			<path class="st2" d="M56.37,55.47c0,0,0.02,0.08-0.07,0.02C56.37,55.47,56.37,55.47,56.37,55.47z"/>
			<path class="st2" d="M57.27,51.82c-0.18,0.05-0.18,0.05-0.28,0.08c0.03,0.09,0.05,0.18,0.1,0.37c0.09-0.03,0.09-0.03,0.27-0.08
				C57.32,52.01,57.3,51.91,57.27,51.82z"/>
			<path class="st2" d="M56.01,46.25c0.03,0.09,0.05,0.18,0.05,0.18C56.41,46.63,56.26,46.08,56.01,46.25z"/>
			<path class="st2" d="M56,64.87c-0.04-0.15-0.04-0.15,0.03-0.17C56.03,64.7,56.07,64.85,56,64.87z"/>
			<path class="st2" d="M41.06,46.89c-0.06,0.02-0.13,0.05-0.17-0.11C40.98,46.84,41.04,46.82,41.06,46.89z"/>
			<path class="st2" d="M56.19,46.89C56.28,46.87,56.16,46.8,56.19,46.89L56.19,46.89z"/>
			<path class="st2" d="M56.19,46.89C56.12,47.01,56.21,46.98,56.19,46.89L56.19,46.89z"/>
			<path class="st2" d="M55.77,47.5c0.27,1.31,0.24,1.91,0.69,3.17C56.29,49.73,56.22,48.07,55.77,47.5z"/>
			<path class="st2" d="M56.69,51.49c-0.17-0.25,0.03-0.6-0.21-0.73C56.41,50.88,56.32,51.6,56.69,51.49z"/>
			<path class="st2" d="M51,44v0.01c0,0,0,0-0.01,0c-0.23-0.1-0.09-0.39-0.14-0.62C51.09,43.48,50.88,43.79,51,44z"/>
			<path class="st2" d="M63.57,54.9c0.02,0.09-0.02,0.3,0.1,0.37C63.64,55.18,63.78,54.94,63.57,54.9z"/>
			<path class="st2" d="M63.93,52.33c-0.18,0.05-0.16,0.14-0.13,0.23C63.98,52.51,63.96,52.42,63.93,52.33z"/>
			<path class="st2" d="M63.34,56.55c0.14,0.16,0.05,0.18,0.08,0.27C63.65,56.95,63.52,56.49,63.34,56.55z"/>
			<path class="st2" d="M63.92,51.94c-0.09,0.03-0.04,0.21,0.01,0.39C64,52.21,63.97,52.12,63.92,51.94z"/>
			<polygon class="st2" points="63.46,57.7 63.49,57.79 63.67,57.74 63.64,57.65 			"/>
			<path class="st2" d="M64.05,49.93C63.89,50.07,64.27,50.36,64.05,49.93L64.05,49.93z"/>
			<path class="st2" d="M64.12,49.81c-0.09,0.03-0.07,0.12-0.07,0.12C64.14,49.9,64.12,49.81,64.12,49.81z"/>
			<path class="st2" d="M64.2,48.7C64.11,48.72,64.23,48.79,64.2,48.7L64.2,48.7z"/>
			<path class="st2" d="M64.26,48.19c-0.09,0.03-0.07,0.12-0.01,0.3C64.33,48.46,64.28,48.28,64.26,48.19z"/>
			<path class="st2" d="M64.25,48.88c-0.32,0.29-0.24,0.56-0.14,0.93C64.31,49.46,64.24,49.18,64.25,48.88z"/>
			<path class="st2" d="M64.24,48.49c-0.09,0.03-0.07,0.12-0.04,0.21C64.29,48.67,64.27,48.58,64.24,48.49z"/>
			<path class="st2" d="M64.87,43.67c0.02,0.09,0.02,0.09,0.02,0.09L64.87,43.67c0.02-0.03,0.03-0.06,0.05-0.09
				c-0.02-0.01-0.08,0-0.08,0c-0.26,0.47,0.35,0.2,0,0.69c0.03,0.09,0.08,0.27-0.11,0.33c-0.33,2.36-0.26,4.72-0.7,7.01
				c0.09,0.67,0.06,1.27-0.18,1.83c0.15,1.24-0.46,2.6-0.13,3.79c0.51-4.88,0.67-9.96,1.71-14.7c-0.35,0.37-0.3,0.71-0.52,1.05
				C64.93,43.59,64.93,43.61,64.87,43.67z"/>
			<path class="st2" d="M76.01,37.59c0.39-0.01,0.34-0.19,0.26-0.47C75.88,37.13,76.19,37.54,76.01,37.59z"/>
			<path class="st2" d="M76.62,37.32l0.02,0.09c0.09-0.03,0.09-0.03,0.28-0.08l-0.03-0.09C76.71,37.29,76.71,37.29,76.62,37.32z"/>
			<path class="st2" d="M63.8,52.56c-0.09,0.03-0.04,0.21-0.01,0.3C63.88,52.84,63.85,52.75,63.8,52.56z"/>
			<path class="st2" d="M64.84,44.27l-0.02-0.09c-0.34,0.19-0.26,0.47-0.25,0.86c0.27-0.08-0.01-0.39,0.17-0.44
				C64.68,44.42,64.75,44.3,64.84,44.27z"/>
			<path class="st2" d="M63.97,51.04C64.24,50.96,63.77,50.7,63.97,51.04L63.97,51.04z"/>
			<path class="st2" d="M64.5,45.55c0.07-0.12,0.11-0.33,0.05-0.51C64.47,45.07,64.41,45.58,64.5,45.55z"/>
			<path class="st2" d="M63.79,52.86c0,0,0,0-0.09,0.03c0.14,0.16-0.16,0.84,0.15,0.55C63.75,53.07,63.93,53.02,63.79,52.86z"/>
			<path class="st2" d="M63.97,51.04l-0.09,0.03c0.05,0.18-0.07,0.81,0.15,0.55C63.95,51.34,64.04,51.31,63.97,51.04z"/>
			<path class="st2" d="M64.33,47.38C64.08,47.55,64.54,47.81,64.33,47.38L64.33,47.38z"/>
			<path class="st2" d="M76.21,50.67c0.07-0.12,0.04-0.21-0.04-0.48C76.08,50.21,76,50.63,76.21,50.67z"/>
			<path class="st2" d="M59.44,63.46c0,0,0.03,0.09-0.07,0.12l0.02,0.09C59.61,63.71,59.48,63.25,59.44,63.46z"/>
			<path class="st2" d="M58.63,60.92c0.21,0.04,0.13,0.46,0.18,0.64C59.09,61.49,58.81,60.48,58.63,60.92z"/>
			<path class="st2" d="M76.11,51.39c0.07-0.12,0.15-0.53-0.06-0.58C76.22,51.06,75.81,51.37,76.11,51.39z"/>
			<path class="st2" d="M64.2,48.01c0,0,0.03,0.09,0.05,0.18C64.35,48.16,64.23,48.1,64.2,48.01z"/>
			<path class="st2" d="M76.17,50.19C76.45,50.11,75.95,49.75,76.17,50.19L76.17,50.19z"/>
			<path class="st2" d="M64.34,47.08c-0.09,0.03-0.04,0.21-0.01,0.3C64.42,47.36,64.39,47.26,64.34,47.08z"/>
			<path class="st2" d="M64.2,48.01C64.54,47.81,64.08,47.55,64.2,48.01L64.2,48.01z"/>
			<path class="st2" d="M64.46,45.76c-0.11,0.33-0.3,0.68-0.04,0.9C64.23,46.32,64.72,45.98,64.46,45.76z"/>
			<path class="st2" d="M75.69,32.25c0.09-0.03,0.12,0.07,0.18-0.05C75.83,32.01,75.64,32.06,75.69,32.25z"/>
			<path class="st2" d="M64.35,46.78c-0.07,0.12-0.04,0.21-0.01,0.3C64.43,47.05,64.54,46.73,64.35,46.78z"/>
			<path class="st1" d="M58.24,58.47c-0.05-0.18-0.24-0.13-0.18,0.05C58.02,58.73,58.39,58.62,58.24,58.47z"/>
			<polygon class="st1" points="50.99,44.01 50.99,44 50.99,44.01 			"/>
			<path class="st1" d="M56.3,55.49c0.07-0.02,0.07-0.02,0.07-0.02C56.35,55.39,56.28,55.41,56.3,55.49z"/>
			<path class="st1" d="M57.18,55.01c0.09-0.03,0.18-0.05,0.16-0.14C57.24,54.89,57.24,54.89,57.18,55.01z"/>
			<path class="st1" d="M58.14,58.79c0.03,0.09,0.08,0.28,0.1,0.37C58.45,59.2,58.29,58.65,58.14,58.79z"/>
			<path class="st1" d="M58.17,56.81c0,0-0.12-0.07-0.09,0.03C58.17,56.81,58.22,56.99,58.17,56.81z"/>
			<path class="st1" d="M57.19,53.63c-0.05,0.13-0.11,0.27-0.16,0.4c0.02,0.23,0.04,0.48,0.07,0.71
				C57.25,54.41,57.26,54.04,57.19,53.63z"/>
			<path class="st1" d="M57.92,57.67c-0.05-0.19-0.12-0.46-0.18-0.64C57.9,56.88,58.13,57.71,57.92,57.67z"/>
			<path class="st1" d="M81.48,40.9c-0.03-0.09-0.05-0.18-0.29-0.32c0.36-0.49-0.11-1.45-0.45-2.34c0.09-0.02,0.18-0.05,0.15-0.14
				c-0.65-1.99-0.99-4.26-2.19-5.71c0.05,0.19,0.25,0.53-0.05,0.51c-0.08-0.27-0.18-0.64-0.14-0.85c-0.47-0.26-0.6-0.03-0.78-0.67
				c-0.71-0.39-1.4-0.4-2.21-0.47c-0.04,0.21,0.01,0.39-0.19,0.35c-0.03-0.09-0.03-0.09-0.08-0.27c-0.46,0.13-0.41,0.31-0.84,0.53
				l0.03,0.09c0.32,0.11,0.64-0.18,0.7,0.4c-0.09,0.02-0.31-0.41-0.18,0.05c0.09-0.03,0.02,0.09,0.02,0.09
				c0.04,0.48,0.13-0.24,0.18-0.05c0.23,0.82,0.22,1.82,0.51,2.52c0.18-0.44,0.07-0.81-0.1-1.06c0.45,0.18-0.03-0.48,0.24-0.56
				c0.09,1.36,0.68,2.78,0.25,4.08c-0.15-0.55,0.1-0.72-0.08-1.36c-0.46,0.13,0.27,0.62-0.25,0.86c-0.05-0.18,0.24-0.56-0.16-0.55
				c0,0.7,0.49,1.05,0.35,1.59c0.03,0.48,0.16-0.15,0.23,0.13c0.39,5.62,0.87,10.52,0.05,15.69c0.02,0.09-0.04,0.21-0.22,0.26
				c-0.03-0.09,0.13-0.23,0.22-0.26c-0.19-1.37,0.32-2.84,0.12-4.39c0,0.22-0.06,0.47-0.16,0.35c0.1-0.32-0.07-0.57,0.04-0.9
				c0.1-0.72-0.11-1.45,0.13-2.01c0.06,0.58,0.01,1.08,0.09,1.75c0.1-0.72,0.12-1.71-0.02-2.56c-0.07,0.12,0.15,0.55-0.19,0.74
				c-0.14-0.85,0.12-1.31-0.13-2.23c-0.06,3.67,0.08,6.99-0.59,10.24c-0.9-2.51-1.33-4.76-2-7.15c-0.13-0.45-0.44-0.86-0.54-1.23
				c-0.41-1.46-0.78-3.83-2.07-5.25c-1.34-0.91-2.9,0.22-4.45,0.66c-0.02,0.3-0.6,0.36-1.05,0.49c-1.31,2.04-1.18,4.97-1.43,7.61
				c-0.43,2.69-0.47,6.06-1.06,8.89c-1.31-5.36-2.02-10-3.1-15.63c-0.66-0.6-0.43-1.56-1.02-1.89c-0.1-0.36-0.2-0.73-0.45-1.25
				c-1.21-0.45-2.47,0.69-3.81,1.56c0.14,0.16,0.51,0.05,0.52,0.44c0.28-0.07,0.22,0.44,0.13,0.46c-0.05-0.18-0.08-0.27-0.13-0.46
				c0.02,0.79-0.09,1.81,0.37,2.37c-0.09,0.03-0.12-0.06-0.3-0.01c0.15,0.55,0.04,0.87,0.15,1.24c0.23,0.13,0.39-0.01,0.49,0.36
				c-0.62-0.13-0.41,1-0.06,1.2c-0.07-0.28-0.1-0.37,0.18-0.45c-0.02,0.3,0.17,0.64-0.05,0.9c-0.18,0.06-0.13-0.45-0.4-0.38
				c-0.02,0.3,0.14,0.85,0.33,1.19c-0.06,0.12,0.13,0.46-0.12,0.63c0.76,1.66,0.51,3.22,1.13,4.03c0.17-0.44-0.42-0.77-0.03-1.17
				c0.26,1.3,0.75,2.35,0.38,3.15c-0.08-0.67-0.01-1.48-0.48-1.74c0,0.31,0.13,0.83,0.28,1.36c-0.15,0.38-0.31,0.75-0.53,1.11
				c0,0,0.02,0.08-0.07,0.02c-0.71,1.86-1.88,3.37-2.59,5.31c0-0.04-0.05-0.01-0.1,0c-0.15,0.62-0.63,0.77-0.66,1.53
				c-0.45-0.03-0.49,0.73-0.8,0.99c-1.75,2.53-3.12,5.69-6.47,6.8c-2.09-1.6-3.05-6.78-2.71-9.62c0.99-0.81,1.82-1.64,2.44-2.74
				c0.1,0.13,0.07-0.03,0.27-0.09c2.41-4.1,4.56-8.44,5.31-13.66c-0.23-0.1-0.09-0.39-0.14-0.62c0.24,0.09,0.03,0.4,0.15,0.61
				c0.04-0.32,0.1-0.62,0.14-0.95c-0.07,0.03-0.07,0.03-0.07,0.03c-0.02-0.08-0.08-0.31-0.01-0.33c0.02,0.07,0.06,0.23,0.08,0.3
				c0.09-0.52,0.04-1.01,0-1.49c-0.83-2.82-3.2-2.83-5.47-2.14c-0.38-0.05-0.79,0.08-1.26-0.03c-1.58,2.32-2.78,4.68-3.52,7.39
				c0.09,0.06,0.15,0.04,0.17,0.11c-0.06,0.02-0.13,0.05-0.17-0.11c-0.27,0.42-0.23,0.9-0.22,1.23c-0.02-0.08-0.06-0.23-0.12-0.21
				c-0.62,2.34-1.25,4.61-1.54,7.36c-0.02,0.5-0.3,1.17-0.4,1.7c-0.33,4.08-0.3,9.05,2.39,12.21c0.61,0.72,1.35,1.32,2.09,1.93
				c0.76,0.68,1.66,1.06,2.45,1.57c0.59-0.02,1.11-0.01,1.52,0.19c0.28-0.08,0.52,0.01,0.9,0.06c0.42-0.13,0.71-0.14,1.12-0.26
				c3.98-1.56,5.44-4.66,7.13-7.75c-0.04-0.15-0.18-0.11-0.18-0.11s0.04,0.15-0.03,0.17c0,0-0.08,0.28-0.19,0.14
				c0.06-0.09,0.06-0.09,0.19-0.14c-0.04-0.15-0.04-0.15,0.03-0.17c0.77-1.51,1.46-3.07,2.11-4.66c0.12,0.55,0.27,1.11,0.43,1.69
				c0.06,0.58,0.41,1.47,0.59,2.11c0.27,0.61,0.53,0.84,0.66,1.3c-0.05-0.19,0.01-0.3,0.1-0.33c0.08,0.28-0.01,0.3,0.04,0.48
				c0.6,0.03,1.25,0.25,1.66,0.63c0.45-0.13,0.48-0.04,0.85-0.14c0.67,0.3,1.84,0.57,2.58,0.06c0.53-0.24,0.72-0.98,1.32-0.96
				c2.08-3.15,2.19-7.33,2.77-11.24c0.3,0.01-0.01-0.39,0.18-0.45c0.78,1.75,1.35,4.14,2.24,5.96c-0.08-0.09-0.29-0.31-0.28,0.01
				c0.21,0.04,0.38,0.29,0.46,0.57c0.35,0.19,0.27-0.08,0.45-0.13c0.04,0.48,0.38,0.29,0.55,0.54c1.76,0.29,3.29,1.15,5.37,0.47
				c1.72-1.27,2.41-3.04,2.85-5.34c0.54-1.93,0.69-4.24,0.78-6.05C81.94,46.79,81.65,43.62,81.48,40.9z M44.63,46.96
				c0.84-2,1.49-4.19,2.96-5.72c0.24,0.09,0.2,0.52,0.41,0.79c0.09,0.96-0.21,1.55-0.11,2.27c-1.26,4.2-2.53,8.41-4.78,11.92
				C43.34,52.91,44.23,49.9,44.63,46.96z M40.47,48.4C40.49,48.48,40.4,48.42,40.47,48.4C40.33,48.12,40.75,48.32,40.47,48.4z
				 M38.85,61.76c-0.45-3.35,0.49-6.46,0.87-9.47c0.09-0.09,0.14-0.17,0.14-0.23C39.48,55.06,38.73,58.26,38.85,61.76z M40.4,49.92
				C40.49,49.98,40.35,50.02,40.4,49.92c-0.04-0.15,0.17-0.22,0.11-0.45C40.66,49.51,40.6,49.86,40.4,49.92z M40.93,48.18
				c0.02,0.08,0.04,0.15-0.03,0.17c0,0,0.02,0.08-0.07,0.03c0.03,0.4-0.23,0.56-0.2,0.97c-0.11-0.13-0.05-0.81,0.2-0.97
				c0,0,0,0,0.07-0.03C40.88,48.28,40.86,48.2,40.93,48.18c-0.05-0.23,0.13-0.37,0.1-0.53C41.18,47.69,41.07,48.14,40.93,48.18z
				 M41.34,47.14l-0.06,0.02c0.02,0.08-0.12,0.12,0,0c-0.02-0.08,0.05-0.1,0.03-0.18C41.38,46.96,41.41,47.12,41.34,47.14z
				 M41.37,46.63C41.35,46.56,41.56,46.49,41.37,46.63C41.51,46.92,41.23,46.68,41.37,46.63z M41.96,45.12c0,0,0.04,0.16-0.03,0.18
				c0.13,0.21-0.14,0.04,0,0C41.89,45.15,41.89,45.15,41.96,45.12c-0.02-0.07-0.02-0.07,0.12-0.12
				C42.1,45.08,42.1,45.08,41.96,45.12z M42.19,44.56c0.15,0.28,0.01,0.33-0.13,0.37c-0.04-0.16,0.12-0.12,0.06-0.35L42.19,44.56
				c0.05-0.1,0.02-0.26,0.22-0.32C42.36,44.34,42.4,44.49,42.19,44.56z M42.47,43.89c0,0.01,0,0.01,0,0.02
				C42.47,43.98,42.37,44,42.47,43.89C42.38,43.5,42.8,43.71,42.47,43.89z M54.72,59.29c-0.04-0.15,0.1-0.19,0.1-0.19
				C54.86,59.25,54.72,59.29,54.72,59.29z"/>
			<path class="st1" d="M76.01,39.37c-0.01,0.3-0.07,0.81,0.1,1.06C76.12,40.13,76.15,39.53,76.01,39.37z"/>
			<path class="st1" d="M76.22,41.88c0.13,0.46-0.01,0.69,0.15,1.24l0.09-0.03C76.27,42.75,76.6,42.17,76.22,41.88z"/>
			<path class="st1" d="M76.34,43.72c0.16-0.14,0.11-0.33,0.03-0.6c0,0,0,0-0.09,0.03C76.38,43.51,76.35,43.42,76.34,43.72z"/>
			<path class="st1" d="M69.26,53.7c-0.07,0.12-0.04,0.21,0.04,0.48C69.62,54.29,69.44,53.65,69.26,53.7z"/>
			<path class="st1" d="M70.59,57.77c0.18-0.05,0.24,0.13,0.18-0.05C70.75,57.63,70.57,57.68,70.59,57.77z"/>
			<path class="st1" d="M70.7,57.45c-0.03-0.09-0.23-0.83-0.31-0.41C70.41,57.13,70.57,57.68,70.7,57.45z"/>
			<path class="st1" d="M56.61,53c0,0.31,0.14,0.83,0.29,1.37c0.05-0.11,0.09-0.22,0.14-0.33C56.99,53.58,56.92,53.17,56.61,53z"/>
			<path class="st1" d="M75.93,39.09c0.42,0.08,0.29-0.38-0.05-0.18C75.91,39,75.91,39,75.93,39.09z"/>
			<path class="st1" d="M69.41,54.25c0.22,0.43,0.35,1.58,0.54,1.23C69.69,55.26,69.83,54.33,69.41,54.25z"/>
			<path class="st1" d="M70.85,58c0.03,0.09,0.05,0.18,0.14,0.16C70.97,58.06,70.94,57.97,70.85,58z"/>
			<path class="st1" d="M75.9,35.45c0.02,0.09,0.02,0.09,0.08,0.27l0.09-0.03C76.08,35.4,75.99,35.42,75.9,35.45z"/>
			<path class="st1" d="M76.1,41.81C76.01,41.84,75.98,41.75,76.1,41.81c0.17-0.44,0.2-1.04,0.01-1.39c0,0,0,0-0.09,0.03
				c-0.06,1.2-0.21,2.43,0.06,3.74C76.38,43.51,76.01,42.53,76.1,41.81z"/>
			<path class="st1" d="M64.87,43.67l0.02,0.09C64.89,43.76,64.89,43.76,64.87,43.67z"/>
			<path class="st1" d="M57.23,53.54C57.25,53.62,57.3,53.52,57.23,53.54L57.23,53.54z"/>
			<path class="st1" d="M64.84,44.27c-0.09,0.03-0.16,0.14-0.11,0.33C64.92,44.55,64.86,44.37,64.84,44.27z"/>
			<path class="st1" d="M57.92,52.42c0.14-0.04,0.14-0.04,0.12-0.12C57.9,52.34,57.92,52.42,57.92,52.42z"/>
			<path class="st1" d="M64.92,43.58c-0.02,0.03-0.03,0.06-0.05,0.09C64.93,43.61,64.93,43.59,64.92,43.58z"/>
			<path class="st1" d="M75.97,35.33c0.16-0.14-0.31-0.41-0.3-0.71c-0.09,0.03-0.09,0.03-0.09,0.03c0.19,0.34-0.13,0.93,0.12,1.15
				c-0.05-0.18,0.11-0.33,0.2-0.35c-0.03-0.09-0.14-0.16-0.17-0.25C75.95,34.94,75.81,35.47,75.97,35.33z"/>
			<path class="st1" d="M76.3,48.87c0.01,0.06,0.01,0.12,0.02,0.19C76.32,48.98,76.31,48.92,76.3,48.87z"/>
			<path class="st1" d="M76.42,44c-0.03,0.6-0.08,1.11-0.02,1.68c0.09-0.03,0.09-0.03,0.09-0.03C76.33,45.11,76.64,44.43,76.42,44z"
				/>
			<path class="st1" d="M76.2,38.62c-0.17-0.25,0.12-0.63-0.25-0.52C76.03,38.38,75.78,38.54,76.2,38.62z"/>
			<path class="st1" d="M76.19,48.5c0.05,0.18,0.08,0.27,0.1,0.37c0.09-0.03,0.09-0.03,0.09-0.03c-0.05-0.18,0.17-0.44,0.03-0.6
				C76.24,48.29,76.47,48.42,76.19,48.5z"/>
		</g>
		<g>
			<path class="st1" d="M95.89,31.96c3.66,6.93,5.65,14.86,5.43,23.26c-0.67,26.13-22.4,46.77-48.54,46.1
				c-26.13-0.67-46.77-22.4-46.1-48.54s22.4-46.77,48.54-46.1c6.91,0.18,13.44,1.84,19.29,4.66l2.32-2.49
				C70.35,5.57,63.05,3.63,55.3,3.43C27.38,2.71,4.15,24.77,3.43,52.7c-0.72,27.93,21.34,51.15,49.26,51.87
				c27.93,0.72,51.15-21.34,51.87-49.26c0.24-9.37-2.09-18.21-6.34-25.85L95.89,31.96z"/>
		</g>
	</g>
</g>
</svg>
