<?xml version="1.0" encoding="utf-8"?>
<!-- Generator: Adobe Illustrator 21.0.0, SVG Export Plug-In . SVG Version: 6.00 Build 0)  -->
<svg version="1.1" id="Layer_1" xmlns="http://www.w3.org/2000/svg" xmlns:xlink="http://www.w3.org/1999/xlink" x="0px" y="0px"
	 viewBox="0 0 102 102" style="enable-background:new 0 0 102 102;" xml:space="preserve">
<style type="text/css">
	.st0{fill:#FFFFFF;}
</style>
<g>
	<polygon points="0,102 0,0 102,0 	"/>
	<g>
		<path class="st0" d="M6.2,47.2l4.5-4.5l14,7.6l0,0L13.9,39.4l3.6-3.6l16.6,16.6l-4.4,4.4l-14.8-8l0,0l11.4,11.4l-3.5,3.5L6.2,47.2
			z"/>
		<path class="st0" d="M20,33.4l9.6-9.6l3.2,3.2L27,32.7l3.3,3.3l5.3-5.3l3.2,3.2l-5.3,5.3l3.8,3.8l5.9-5.9l3.2,3.2L36.5,50L20,33.4
			z"/>
		<path class="st0" d="M30.5,22.9l3.9-3.9l13.2,10.3l0,0L37.6,15.8l3.6-3.6l13.6,9.9l0,0L44.5,8.9l3.8-3.8l13.7,19.4l-4.3,4.3
			L44.2,18.8l0,0l10.2,13.4L50,36.5L30.5,22.9z"/>
	</g>
</g>
</svg>
