<svg version="1.0" xmlns="http://www.w3.org/2000/svg"
                                width="48.000000pt" height="48.000000pt" viewBox="0 0 48.000000 48.000000"
                                preserveAspectRatio="xMidYMid meet">
                               <g transform="translate(0.000000,48.000000) scale(0.100000,-0.100000)"
                               fill="#E82836" stroke="none">
                               <path d="M73 380 c-48 -20 -68 -115 -39 -185 19 -46 96 -126 157 -166 l49 -31
                               49 31 c61 40 138 120 157 166 18 45 18 108 -1 146 -27 52 -97 64 -165 29 l-40
                               -20 -40 20 c-41 21 -90 25 -127 10z m123 -35 c10 -8 30 -14 44 -14 14 0 34 6
                               44 14 30 23 109 19 131 -5 24 -26 24 -104 1 -149 -21 -40 -82 -101 -136 -137
                               l-40 -27 -40 27 c-54 36 -115 97 -136 138 -24 46 -24 120 0 147 23 25 101 29
                               132 6z"/>
                               </g>
                               </svg>